999
DXF file: SI_sdpsi_s1066z-048a064.dxf
999
Pro/ENGINEER 2020184 by Parametric Technology Corporation
  0
SECTION
  2
HEADER
  9
$ACADVER
  1
AC1032
  9
$DWGCODEPAGE
  3
ANSI_1252
  9
$EXTMAX
 10
22.0
 20
17.0
 30
0.0
  9
$EXTMIN
 10
0.0
 20
0.0
 30
0.0
  9
$LIMMIN
 10
0.0
 20
0.0
  9
$LIMMAX
 10
22.0
 20
17.0
  9
$VIEWCTR
 10
11.0
 20
8.5
  9
$VIEWSIZE
 40
17.0
  9
$CLAYER
  8
0
  9
$LTSCALE
 40
1.21
  9
$CELTYPE
  6
BYLAYER
  9
$DIMSCALE
 40
1.0
  9
$DIMASZ
 40
0.1875
  9
$DIMEXO
 40
0.0625
  9
$DIMDLI
 40
0.836
  9
$DIMEXE
 40
0.125
  9
$DIMCEN
 40
0.198
  9
$DIMLFAC
 40
1.0
  9
$DIMBLK
  1
_CLOSED
  9
$DIMALT
 70
0
  9
$DIMALTF
 40
25.4
  9
$DIMTXT
 40
0.15625
  9
$DIMTOL
 70
0
  9
$DIMLIM
 70
0
  9
$DIMTFAC
 40
1.0
  9
$DIMGAP
 40
0.09
  9
$DIMDSEP
 70
46
  9
$AUNITS
 70
0
  9
$PDMODE
 70
3
  9
$PDSIZE
 40
0.3125
  9
$HANDSEED
  5
323
  9
$TILEMODE
 70
1
  9
$MEASUREMENT
 70
0
  9
$INSUNITS
 70
1
  0
ENDSEC
  0
SECTION
  2
CLASSES
  0
CLASS
  1
ACDBDICTIONARYWDFLT
  2
AcDbDictionaryWithDefault
  3
AutoCAD 2000
 90
0
 91
1
280
0
281
0
  0
CLASS
  1
ACDBPLACEHOLDER
  2
AcDbPlaceHolder
  3
AutoCAD 2000
 90
0
 91
1
280
0
281
0
  0
CLASS
  1
LAYOUT
  2
AcDbLayout
  3
AutoCAD 2000
 90
0
 91
0
280
0
281
0
  0
ENDSEC
  0
SECTION
  2
TABLES
  0
TABLE
  2
VPORT
  5
8
100
AcDbSymbolTable
 70
2
  0
VPORT
  5
1F4
100
AcDbSymbolTableRecord
100
AcDbViewportTableRecord
  2
*ACTIVE
 70
0
 10
0.0
 20
0.0
 11
1.0
 21
1.0
 12
11.0
 22
8.5
 13
0.0
 23
0.0
 14
1.0
 24
1.0
 15
0.0
 25
0.0
 16
0.0
 26
0.0
 36
1.0
 17
0.0
 27
0.0
 37
0.0
 40
17.0
 41
1.2941176471
 42
50.0
 43
0.0
 44
0.0
 50
0.0
 51
0.0
 71
0
 72
100
 73
1
 74
1
 75
0
 76
0
 77
0
 78
0
  0
ENDTAB
  0
TABLE
  2
LTYPE
  5
5
100
AcDbSymbolTable
 70
6
  0
LTYPE
  5
14
100
AcDbSymbolTableRecord
100
AcDbLinetypeTableRecord
  2
BYBLOCK
 70
0
  3

 72
65
 73
0
 40
0.0
  0
LTYPE
  5
15
100
AcDbSymbolTableRecord
100
AcDbLinetypeTableRecord
  2
BYLAYER
 70
0
  3

 72
65
 73
0
 40
0.0
  0
LTYPE
  5
16
100
AcDbSymbolTableRecord
100
AcDbLinetypeTableRecord
  2
CONTINUOUS
 70
64
  3
Solid line
 72
65
 73
0
 40
0.0
  0
LTYPE
  5
1F5
100
AcDbSymbolTableRecord
100
AcDbLinetypeTableRecord
  2
CENTER
 70
64
  3
____ _ ____ _ ____ _ ____ _ ____ _ ____ _ ____
 72
65
 73
4
 40
0.6
 49
0.375
 74
0
 49
-0.075
 74
0
 49
0.075
 74
0
 49
-0.075
 74
0
  0
LTYPE
  5
1F6
100
AcDbSymbolTableRecord
100
AcDbLinetypeTableRecord
  2
HIDDEN
 70
64
  3
- - - - - - - - - - - - - - - - - - - -
 72
65
 73
2
 40
0.2
 49
0.1
 74
0
 49
-0.1
 74
0
  0
LTYPE
  5
1F7
100
AcDbSymbolTableRecord
100
AcDbLinetypeTableRecord
  2
PHANTOM
 70
64
  3
_____ _ _ _____ _ _ _____ _ _ _____
 72
65
 73
6
 40
0.8
 49
0.45
 74
0
 49
-0.05
 74
0
 49
0.1
 74
0
 49
-0.05
 74
0
 49
0.1
 74
0
 49
-0.05
 74
0
  0
LTYPE
  5
1F8
100
AcDbSymbolTableRecord
100
AcDbLinetypeTableRecord
  2
DOT
 70
64
  3
. . . . . . . . . . . . . . . . . . . .
 72
65
 73
2
 40
0.2
 49
0.1
 74
0
 49
-0.1
 74
0
  0
LTYPE
  5
1F9
100
AcDbSymbolTableRecord
100
AcDbLinetypeTableRecord
  2
DASHED
 70
64
  3
- - - - - - - - - - - - - - - - - - - -
 72
65
 73
2
 40
0.2
 49
0.1
 74
0
 49
-0.1
 74
0
  0
ENDTAB
  0
TABLE
  2
LAYER
  5
2
100
AcDbSymbolTable
 70
36
  0
LAYER
  5
10
100
AcDbSymbolTableRecord
100
AcDbLayerTableRecord
  2
0
 70
0
 62
7
  6
CONTINUOUS
370
-3
390
F
  0
LAYER
  5
1FA
100
AcDbSymbolTableRecord
100
AcDbLayerTableRecord
  2
DEFAULT_1
 70
0
 62
7
  6
CENTER
370
-3
390
F
  0
LAYER
  5
1FB
100
AcDbSymbolTableRecord
100
AcDbLayerTableRecord
  2
DEFAULT_2
 70
0
 62
7
  6
HIDDEN
370
-3
390
F
  0
LAYER
  5
1FC
100
AcDbSymbolTableRecord
100
AcDbLayerTableRecord
  2
DEFAULT_3
 70
0
 62
7
  6
PHANTOM
370
-3
390
F
  0
LAYER
  5
1FD
100
AcDbSymbolTableRecord
100
AcDbLayerTableRecord
  2
01_ALL_DTM_PLN
 70
0
 62
7
  6
CONTINUOUS
370
-3
390
F
  0
LAYER
  5
1FE
100
AcDbSymbolTableRecord
100
AcDbLayerTableRecord
  2
01__ASM_ALL_DTM_PLN
 70
0
 62
7
  6
CONTINUOUS
370
-3
390
F
  0
LAYER
  5
1FF
100
AcDbSymbolTableRecord
100
AcDbLayerTableRecord
  2
01__ASM_DEF_DTM_PLN
 70
0
 62
7
  6
CONTINUOUS
370
-3
390
F
  0
LAYER
  5
200
100
AcDbSymbolTableRecord
100
AcDbLayerTableRecord
  2
01___PRT_ALL_DTM_PLN
 70
0
 62
7
  6
CONTINUOUS
370
-3
390
F
  0
LAYER
  5
201
100
AcDbSymbolTableRecord
100
AcDbLayerTableRecord
  2
01___PRT_DEF_DTM_PLN
 70
0
 62
7
  6
CONTINUOUS
370
-3
390
F
  0
LAYER
  5
202
100
AcDbSymbolTableRecord
100
AcDbLayerTableRecord
  2
02_ALL_AXES
 70
0
 62
7
  6
CONTINUOUS
370
-3
390
F
  0
LAYER
  5
203
100
AcDbSymbolTableRecord
100
AcDbLayerTableRecord
  2
02__ASM_ALL_AXES
 70
0
 62
7
  6
CONTINUOUS
370
-3
390
F
  0
LAYER
  5
204
100
AcDbSymbolTableRecord
100
AcDbLayerTableRecord
  2
02___PRT_ALL_AXES
 70
0
 62
7
  6
CONTINUOUS
370
-3
390
F
  0
LAYER
  5
205
100
AcDbSymbolTableRecord
100
AcDbLayerTableRecord
  2
03_ALL_CURVES
 70
0
 62
7
  6
CONTINUOUS
370
-3
390
F
  0
LAYER
  5
206
100
AcDbSymbolTableRecord
100
AcDbLayerTableRecord
  2
03__ASM_ALL_CURVES
 70
0
 62
7
  6
CONTINUOUS
370
-3
390
F
  0
LAYER
  5
207
100
AcDbSymbolTableRecord
100
AcDbLayerTableRecord
  2
03___PRT_ALL_CURVES
 70
0
 62
7
  6
CONTINUOUS
370
-3
390
F
  0
LAYER
  5
208
100
AcDbSymbolTableRecord
100
AcDbLayerTableRecord
  2
04_ALL_DTM_PNT
 70
0
 62
7
  6
CONTINUOUS
370
-3
390
F
  0
LAYER
  5
209
100
AcDbSymbolTableRecord
100
AcDbLayerTableRecord
  2
04__ASM_ALL_DTM_PNT
 70
0
 62
7
  6
CONTINUOUS
370
-3
390
F
  0
LAYER
  5
20A
100
AcDbSymbolTableRecord
100
AcDbLayerTableRecord
  2
04___PRT_ALL_DTM_PNT
 70
0
 62
7
  6
CONTINUOUS
370
-3
390
F
  0
LAYER
  5
20B
100
AcDbSymbolTableRecord
100
AcDbLayerTableRecord
  2
05_ALL_DTM_CSYS
 70
0
 62
7
  6
CONTINUOUS
370
-3
390
F
  0
LAYER
  5
20C
100
AcDbSymbolTableRecord
100
AcDbLayerTableRecord
  2
05__ASM_ALL_DTM_CSYS
 70
0
 62
7
  6
CONTINUOUS
370
-3
390
F
  0
LAYER
  5
20D
100
AcDbSymbolTableRecord
100
AcDbLayerTableRecord
  2
05__ASM_DEF_DTM_CSYS
 70
0
 62
7
  6
CONTINUOUS
370
-3
390
F
  0
LAYER
  5
20E
100
AcDbSymbolTableRecord
100
AcDbLayerTableRecord
  2
05___PRT_ALL_DTM_CSYS
 70
0
 62
7
  6
CONTINUOUS
370
-3
390
F
  0
LAYER
  5
20F
100
AcDbSymbolTableRecord
100
AcDbLayerTableRecord
  2
05___PRT_DEF_DTM_CSYS
 70
0
 62
7
  6
CONTINUOUS
370
-3
390
F
  0
LAYER
  5
210
100
AcDbSymbolTableRecord
100
AcDbLayerTableRecord
  2
06_ALL_SURFS
 70
0
 62
7
  6
CONTINUOUS
370
-3
390
F
  0
LAYER
  5
211
100
AcDbSymbolTableRecord
100
AcDbLayerTableRecord
  2
06__ASM_ALL_SURFS
 70
0
 62
7
  6
CONTINUOUS
370
-3
390
F
  0
LAYER
  5
212
100
AcDbSymbolTableRecord
100
AcDbLayerTableRecord
  2
06___PRT_ALL_SURFS
 70
0
 62
7
  6
CONTINUOUS
370
-3
390
F
  0
LAYER
  5
213
100
AcDbSymbolTableRecord
100
AcDbLayerTableRecord
  2
07__ASM_ALL_SKELETONS
 70
0
 62
7
  6
CONTINUOUS
370
-3
390
F
  0
LAYER
  5
214
100
AcDbSymbolTableRecord
100
AcDbLayerTableRecord
  2
ALL_CSYS
 70
0
 62
7
  6
CONTINUOUS
370
-3
390
F
  0
LAYER
  5
215
100
AcDbSymbolTableRecord
100
AcDbLayerTableRecord
  2
ALL_DATUMS
 70
0
 62
7
  6
CONTINUOUS
370
-3
390
F
  0
LAYER
  5
216
100
AcDbSymbolTableRecord
100
AcDbLayerTableRecord
  2
ALL_DATUM_FEAT
 70
0
 62
7
  6
CONTINUOUS
370
-3
390
F
  0
LAYER
  5
217
100
AcDbSymbolTableRecord
100
AcDbLayerTableRecord
  2
ALL_POINTS
 70
0
 62
7
  6
CONTINUOUS
370
-3
390
F
  0
LAYER
  5
218
100
AcDbSymbolTableRecord
100
AcDbLayerTableRecord
  2
AXIS
 70
0
 62
7
  6
CONTINUOUS
370
-3
390
F
  0
LAYER
  5
219
100
AcDbSymbolTableRecord
100
AcDbLayerTableRecord
  2
CSYS
 70
0
 62
7
  6
CONTINUOUS
370
-3
390
F
  0
LAYER
  5
21A
100
AcDbSymbolTableRecord
100
AcDbLayerTableRecord
  2
DATUM_PLANES
 70
0
 62
7
  6
CONTINUOUS
370
-3
390
F
  0
LAYER
  5
21B
100
AcDbSymbolTableRecord
100
AcDbLayerTableRecord
  2
DIMS
 70
0
 62
7
  6
CONTINUOUS
370
-3
390
F
  0
LAYER
  5
21C
100
AcDbSymbolTableRecord
100
AcDbLayerTableRecord
  2
LAY0001
 70
0
 62
7
  6
CONTINUOUS
370
-3
390
F
  0
LAYER
  5
21D
100
AcDbSymbolTableRecord
100
AcDbLayerTableRecord
  2
LAYER_AXIS
 70
0
 62
7
  6
CONTINUOUS
370
-3
390
F
  0
LAYER
  5
21E
100
AcDbSymbolTableRecord
100
AcDbLayerTableRecord
  2
LAYER_CHAMFER_FEAT
 70
0
 62
7
  6
CONTINUOUS
370
-3
390
F
  0
LAYER
  5
21F
100
AcDbSymbolTableRecord
100
AcDbLayerTableRecord
  2
LAYER_CSYS
 70
0
 62
7
  6
CONTINUOUS
370
-3
390
F
  0
LAYER
  5
220
100
AcDbSymbolTableRecord
100
AcDbLayerTableRecord
  2
LAYER_CURVE
 70
0
 62
7
  6
CONTINUOUS
370
-3
390
F
  0
LAYER
  5
221
100
AcDbSymbolTableRecord
100
AcDbLayerTableRecord
  2
LAYER_CURVE_ENT
 70
0
 62
7
  6
CONTINUOUS
370
-3
390
F
  0
LAYER
  5
222
100
AcDbSymbolTableRecord
100
AcDbLayerTableRecord
  2
LAYER_CUT_FEAT
 70
0
 62
7
  6
CONTINUOUS
370
-3
390
F
  0
LAYER
  5
223
100
AcDbSymbolTableRecord
100
AcDbLayerTableRecord
  2
LAYER_DATUM
 70
0
 62
7
  6
CONTINUOUS
370
-3
390
F
  0
LAYER
  5
224
100
AcDbSymbolTableRecord
100
AcDbLayerTableRecord
  2
LAYER_DATUM_POINT
 70
0
 62
7
  6
CONTINUOUS
370
-3
390
F
  0
LAYER
  5
225
100
AcDbSymbolTableRecord
100
AcDbLayerTableRecord
  2
LAYER_DIM
 70
0
 62
7
  6
CONTINUOUS
370
-3
390
F
  0
LAYER
  5
226
100
AcDbSymbolTableRecord
100
AcDbLayerTableRecord
  2
LAYER_FEATURE
 70
0
 62
7
  6
CONTINUOUS
370
-3
390
F
  0
LAYER
  5
227
100
AcDbSymbolTableRecord
100
AcDbLayerTableRecord
  2
LAYER_GEOM_FEAT
 70
0
 62
7
  6
CONTINUOUS
370
-3
390
F
  0
LAYER
  5
228
100
AcDbSymbolTableRecord
100
AcDbLayerTableRecord
  2
LAYER_NOGEOM_FEAT
 70
0
 62
7
  6
CONTINUOUS
370
-3
390
F
  0
LAYER
  5
229
100
AcDbSymbolTableRecord
100
AcDbLayerTableRecord
  2
LAYER_NOTE
 70
0
 62
7
  6
CONTINUOUS
370
-3
390
F
  0
LAYER
  5
22A
100
AcDbSymbolTableRecord
100
AcDbLayerTableRecord
  2
LAYER_PARAMETER_DIM
 70
0
 62
7
  6
CONTINUOUS
370
-3
390
F
  0
LAYER
  5
22B
100
AcDbSymbolTableRecord
100
AcDbLayerTableRecord
  2
LAYER_POINT
 70
0
 62
7
  6
CONTINUOUS
370
-3
390
F
  0
LAYER
  5
22C
100
AcDbSymbolTableRecord
100
AcDbLayerTableRecord
  2
LAYER_PROTRUSION_FEAT
 70
0
 62
7
  6
CONTINUOUS
370
-3
390
F
  0
LAYER
  5
22D
100
AcDbSymbolTableRecord
100
AcDbLayerTableRecord
  2
LAYER_QUILT
 70
0
 62
7
  6
CONTINUOUS
370
-3
390
F
  0
LAYER
  5
22E
100
AcDbSymbolTableRecord
100
AcDbLayerTableRecord
  2
LAYER_ROUND_FEAT
 70
0
 62
7
  6
CONTINUOUS
370
-3
390
F
  0
LAYER
  5
22F
100
AcDbSymbolTableRecord
100
AcDbLayerTableRecord
  2
LAYER_SURFACE
 70
0
 62
7
  6
CONTINUOUS
370
-3
390
F
  0
LAYER
  5
230
100
AcDbSymbolTableRecord
100
AcDbLayerTableRecord
  2
MAIN_CURVES
 70
0
 62
7
  6
CONTINUOUS
370
-3
390
F
  0
LAYER
  5
231
100
AcDbSymbolTableRecord
100
AcDbLayerTableRecord
  2
POINTS
 70
0
 62
7
  6
CONTINUOUS
370
-3
390
F
  0
LAYER
  5
232
100
AcDbSymbolTableRecord
100
AcDbLayerTableRecord
  2
SURFACE
 70
0
 62
7
  6
CONTINUOUS
370
-3
390
F
  0
ENDTAB
  0
TABLE
  2
STYLE
  5
3
100
AcDbSymbolTable
 70
1
  0
STYLE
  5
11
100
AcDbSymbolTableRecord
100
AcDbTextStyleTableRecord
  2
STANDARD
 70
0
 40
0.0
 41
0.8
 50
0.0
 71
0
 42
0.2
  3
SIMPLEX.SHX
  4

  0
STYLE
  5
233
100
AcDbSymbolTableRecord
100
AcDbTextStyleTableRecord
  2
TEXTSTYLE_1
 70
0
 40
0.0
 41
0.8
 50
0.0
 71
0
 42
0.2
  3
gdt
  4

  0
ENDTAB
  0
TABLE
  2
VIEW
  5
6
100
AcDbSymbolTable
 70
0
  0
ENDTAB
  0
TABLE
  2
UCS
  5
7
100
AcDbSymbolTable
 70
0
  0
ENDTAB
  0
TABLE
  2
APPID
  5
9
100
AcDbSymbolTable
 70
1
  0
APPID
  5
234
100
AcDbSymbolTableRecord
100
AcDbRegAppTableRecord
  2
ACAD
 70
0
  0
ENDTAB
  0
TABLE
  2
BLOCK_RECORD
  5
1
100
AcDbSymbolTable
 70
0
  0
BLOCK_RECORD
  5
235
100
AcDbSymbolTableRecord
100
AcDbBlockTableRecord
  2
*Model_Space
  0
BLOCK_RECORD
  5
236
100
AcDbSymbolTableRecord
100
AcDbBlockTableRecord
  2
*Paper_Space
  0
BLOCK_RECORD
  5
237
100
AcDbSymbolTableRecord
100
AcDbBlockTableRecord
  2
_CLOSED
  0
ENDTAB
  0
TABLE
  2
DIMSTYLE
  5
A
100
AcDbSymbolTable
 70
1
100
AcDbDimStyleTable
 71
0
  0
DIMSTYLE
105
238
100
AcDbSymbolTableRecord
100
AcDbDimStyleTableRecord
  2
STANDARD
 70
0
  3

  4

 40
1.0
 41
0.1875
 42
0.0625
 43
0.38
 44
0.125
 45
0.0
 46
0.0
 47
0.0001
 48
0.0001
140
0.15625
141
0.09
142
0.0
143
25.4
144
1.0
145
0.0
146
1.0
147
0.09
 71
0
 72
0
 73
1
 74
1
 75
0
 76
0
 77
0
 78
4
 79
1
170
0
171
3
172
0
173
0
174
0
175
0
176
0
177
0
178
0
270
2
179
4
271
4
272
4
273
2
274
2
275
0
280
0
281
0
282
0
283
1
284
4
285
0
286
0
287
3
288
0
340
11
278
46
341
237
342
237
343
237
344
237
  0
ENDTAB
  0
ENDSEC
  0
SECTION
  2
BLOCKS
  0
BLOCK
  5
20
100
AcDbEntity
  8
0
100
AcDbBlockBegin
  2
*Model_Space
 70
0
 10
0.0
 20
0.0
 30
0.0
  3
*Model_Space
  1

  0
ENDBLK
  5
21
100
AcDbEntity
  8
0
100
AcDbBlockEnd
  0
BLOCK
  5
1C
100
AcDbEntity
  8
0
100
AcDbBlockBegin
  2
*Paper_Space
 70
0
 10
0.0
 20
0.0
 30
0.0
  3
*Paper_Space
  1

  0
ENDBLK
  5
1D
100
AcDbEntity
  8
0
100
AcDbBlockEnd
  0
BLOCK
  5
239
100
AcDbEntity
  8
0
100
AcDbBlockBegin
  2
_CLOSED
 70
64
 10
0.0
 20
0.0
  3
_CLOSED
  1

  0
LINE
  5
23A
100
AcDbEntity
  8
0
  6
BYBLOCK
 62
0
100
AcDbLine
 10
0.0
 20
0.0
 11
-1.0
 21
0.1666666667
  0
LINE
  5
23B
100
AcDbEntity
  8
0
  6
BYBLOCK
 62
0
100
AcDbLine
 10
-1.0
 20
0.1666666667
 11
-1.0
 21
-0.1666666667
  0
LINE
  5
23C
100
AcDbEntity
  8
0
  6
BYBLOCK
 62
0
100
AcDbLine
 10
-1.0
 20
-0.1666666667
 11
0.0
 21
0.0
  0
LINE
  5
23D
100
AcDbEntity
  8
0
  6
BYBLOCK
 62
0
100
AcDbLine
 10
-1.0
 20
0.0
 11
0.0
 21
0.0
  0
ENDBLK
  5
23E
100
AcDbEntity
  8
0
  6
BYBLOCK
 62
0
100
AcDbBlockEnd
  0
ENDSEC
  0
SECTION
  2
ENTITIES
  0
LINE
  5
23F
100
AcDbEntity
  8
0
100
AcDbLine
 62
7
  6
BYLAYER
 10
0.0
 20
0.0
 11
0.0
 21
17.0
  0
LINE
  5
240
100
AcDbEntity
  8
0
100
AcDbLine
 62
7
  6
BYLAYER
 10
0.0
 20
0.0
 11
22.0
 21
0.0
  0
LINE
  5
241
100
AcDbEntity
  8
0
100
AcDbLine
 62
7
  6
BYLAYER
 10
0.0
 20
17.0
 11
22.0
 21
17.0
  0
LINE
  5
242
100
AcDbEntity
  8
0
100
AcDbLine
 62
7
  6
BYLAYER
 10
22.0
 20
0.0
 11
22.0
 21
17.0
  0
LINE
  5
243
100
AcDbEntity
  8
0
100
AcDbLine
 62
7
  6
BYLAYER
 10
5.3125
 20
3.6111933333
 11
5.4375
 21
3.6111933333
  0
LINE
  5
244
100
AcDbEntity
  8
LAYER_FEATURE
100
AcDbLine
 62
7
  6
BYLAYER
 10
5.6781325
 20
4.00086
 11
5.4468675
 21
4.00086
  0
LINE
  5
245
100
AcDbEntity
  8
LAYER_CUT_FEAT
100
AcDbLine
 62
7
  6
BYLAYER
 10
5.3125
 20
4.9330716655
 11
5.3125
 21
4.8962078535
  0
LINE
  5
246
100
AcDbEntity
  8
LAYER_FEATURE
100
AcDbLine
 62
7
  6
BYLAYER
 10
5.3125
 20
3.6111933337
 11
5.3125
 21
4.8962078535
  0
LINE
  5
247
100
AcDbEntity
  8
LAYER_FEATURE
100
AcDbLine
 62
7
  6
BYLAYER
 10
5.6370654126
 20
4.5004802533
 11
5.6366282539
 21
4.5003409819
  0
LINE
  5
248
100
AcDbEntity
  8
LAYER_FEATURE
100
AcDbLine
 62
7
  6
BYLAYER
 10
5.6366286217
 20
4.5003410765
 11
5.6352786673
 21
4.4999182
  0
LWPOLYLINE
  5
249
100
AcDbEntity
  8
LAYER_FEATURE
100
AcDbPolyline
 62
7
  6
BYLAYER
 90
3
 70
0
 10
5.6352743259
 20
4.4999168317
 10
5.6329632678
 20
4.499207182
 10
5.6297017154
 20
4.4982422397
  0
LINE
  5
24A
100
AcDbEntity
  8
LAYER_FEATURE
100
AcDbLine
 62
7
  6
BYLAYER
 10
5.502
 20
4.50086
 11
5.498485144
 21
4.497345144
  0
LINE
  5
24B
100
AcDbEntity
  8
LAYER_CUT_FEAT
100
AcDbLine
 62
7
  6
BYLAYER
 10
5.4375
 20
4.9330716655
 11
5.4375
 21
4.8962078535
  0
LINE
  5
24C
100
AcDbEntity
  8
LAYER_FEATURE
100
AcDbLine
 62
7
  6
BYLAYER
 10
5.4375
 20
4.8962078535
 11
5.4375
 21
3.6111933337
  0
LINE
  5
24D
100
AcDbEntity
  8
LAYER_FEATURE
100
AcDbLine
 62
7
  6
BYLAYER
 10
5.6781325
 20
4.50086
 11
5.6781325
 21
4.00086
  0
LINE
  5
24E
100
AcDbEntity
  8
LAYER_FEATURE
100
AcDbLine
 62
7
  6
BYLAYER
 10
5.6875
 20
4.4914925
 11
5.6875
 21
4.0102275
  0
LINE
  5
24F
100
AcDbEntity
  8
LAYER_FEATURE
100
AcDbLine
 62
7
  6
BYLAYER
 10
5.6297107116
 20
4.4982448485
 11
5.6255333252
 21
4.497068862
  0
LWPOLYLINE
  5
250
100
AcDbEntity
  8
LAYER_FEATURE
100
AcDbPolyline
 62
7
  6
BYLAYER
 90
18
 70
0
 10
5.6255333252
 20
4.497068862
 10
5.6205278652
 20
4.4957523577
 10
5.6147946018
 20
4.4943691897
 10
5.6084231449
 20
4.4929919093
 10
5.6015300789
 20
4.4916951918
 10
5.5942043997
 20
4.4905406717
 10
5.5865520262
 20
4.4895858232
 10
5.5786563277
 20
4.4888717837
 10
5.5706139781
 20
4.4884322989
 10
5.5624952845
 20
4.4882831898
 10
5.5543767033
 20
4.4884326403
 10
5.5463348043
 20
4.4888724288
 10
5.5384399014
 20
4.4895866953
 10
5.530788724
 20
4.4905416455
 10
5.5234649476
 20
4.4916960544
 10
5.5165735174
 20
4.4929925861
 10
5.5102027585
 20
4.4943697956
 10
5.5044696309
 20
4.4957529909
  0
LINE
  5
251
100
AcDbEntity
  8
LAYER_FEATURE
100
AcDbLine
 62
7
  6
BYLAYER
 10
5.5172782498
 20
4.49286
 11
5.607721944
 21
4.49286
  0
LINE
  5
252
100
AcDbEntity
  8
LAYER_FEATURE
100
AcDbLine
 62
7
  6
BYLAYER
 10
5.5044696309
 20
4.4957529909
 11
5.499463732
 21
4.4970696654
  0
LINE
  5
253
100
AcDbEntity
  8
LAYER_FEATURE
100
AcDbLine
 62
7
  6
BYLAYER
 10
5.499463732
 20
4.4970696654
 11
5.4952951705
 21
4.4982431416
  0
LWPOLYLINE
  5
254
100
AcDbEntity
  8
LAYER_FEATURE
100
AcDbPolyline
 62
7
  6
BYLAYER
 90
5
 70
0
 10
5.4952951705
 20
4.4982431416
 10
5.492033957
 20
4.499208024
 10
5.4897238592
 20
4.4999173996
 10
5.4883712097
 20
4.5003411456
 10
5.4879346585
 20
4.5004802301
  0
LINE
  5
255
100
AcDbEntity
  8
LAYER_FEATURE
100
AcDbLine
 62
7
  6
BYLAYER
 10
5.6781325
 20
4.50086
 11
5.6395
 21
4.50086
  0
LINE
  5
256
100
AcDbEntity
  8
LAYER_FEATURE
100
AcDbLine
 62
7
  6
BYLAYER
 10
5.4855
 20
4.50086
 11
5.4468675
 21
4.50086
  0
LINE
  5
257
100
AcDbEntity
  8
LAYER_FEATURE
100
AcDbLine
 62
7
  6
BYLAYER
 10
5.502
 20
4.50086
 11
5.623
 21
4.50086
  0
LINE
  5
258
100
AcDbEntity
  8
LAYER_FEATURE
100
AcDbLine
 62
7
  6
BYLAYER
 10
5.623
 20
4.50086
 11
5.6265148457
 21
4.4973451543
  0
LINE
  5
259
100
AcDbEntity
  8
LAYER_FEATURE
100
AcDbLine
 62
7
  6
BYLAYER
 10
5.6875
 20
4.0102275
 11
5.6781325
 21
4.00086
  0
LINE
  5
25A
100
AcDbEntity
  8
LAYER_FEATURE
100
AcDbLine
 62
7
  6
BYLAYER
 10
5.6875
 20
4.4914925
 11
5.6781325
 21
4.50086
  0
LINE
  5
25B
100
AcDbEntity
  8
LAYER_CUT_FEAT
100
AcDbLine
 62
7
  6
BYLAYER
 10
5.3177083333
 20
4.9383108837
 11
5.4322916667
 21
4.9383108837
  0
LINE
  5
25C
100
AcDbEntity
  8
0
100
AcDbLine
 62
7
  6
BYLAYER
 10
5.3125
 20
12.1103663333
 11
5.4375
 21
12.1103663333
  0
LINE
  5
25D
100
AcDbEntity
  8
LAYER_FEATURE
100
AcDbLine
 62
7
  6
BYLAYER
 10
5.4468675
 20
12.500033
 11
5.5275
 21
12.500033
  0
LINE
  5
25E
100
AcDbEntity
  8
LAYER_FEATURE
100
AcDbLine
 62
7
  6
BYLAYER
 10
5.5975
 20
12.500033
 11
5.6781325
 21
12.500033
  0
LINE
  5
25F
100
AcDbEntity
  8
LAYER_FEATURE
100
AcDbLine
 62
7
  6
BYLAYER
 10
5.3125
 20
12.1103663338
 11
5.3125
 21
12.7278319239
  0
LINE
  5
260
100
AcDbEntity
  8
LAYER_CUT_FEAT
100
AcDbLine
 62
7
  6
BYLAYER
 10
5.3125
 20
12.7278319239
 11
5.3125
 21
12.7722340761
  0
LINE
  5
261
100
AcDbEntity
  8
LAYER_FEATURE
100
AcDbLine
 62
7
  6
BYLAYER
 10
5.3125
 20
12.7722340761
 11
5.3125
 21
12.7911939793
  0
LINE
  5
262
100
AcDbEntity
  8
LAYER_CUT_FEAT
100
AcDbLine
 62
7
  6
BYLAYER
 10
5.3125
 20
12.7911939793
 11
5.3125
 21
12.835382323
  0
LINE
  5
263
100
AcDbEntity
  8
LAYER_FEATURE
100
AcDbLine
 62
7
  6
BYLAYER
 10
5.3125
 20
12.835382323
 11
5.3125
 21
13.3896996667
  0
LINE
  5
264
100
AcDbEntity
  8
LAYER_FEATURE
100
AcDbLine
 62
7
  6
BYLAYER
 10
5.4375
 20
13.3896996667
 11
5.4375
 21
12.835382323
  0
LINE
  5
265
100
AcDbEntity
  8
LAYER_FEATURE
100
AcDbLine
 62
7
  6
BYLAYER
 10
5.4375
 20
12.7911939793
 11
5.4375
 21
12.7722340761
  0
LINE
  5
266
100
AcDbEntity
  8
LAYER_CUT_FEAT
100
AcDbLine
 62
7
  6
BYLAYER
 10
5.4375
 20
12.7722340761
 11
5.4375
 21
12.7278319239
  0
LINE
  5
267
100
AcDbEntity
  8
LAYER_FEATURE
100
AcDbLine
 62
7
  6
BYLAYER
 10
5.4375
 20
12.7278319239
 11
5.4375
 21
12.1103663338
  0
LINE
  5
268
100
AcDbEntity
  8
LAYER_CUT_FEAT
100
AcDbLine
 62
7
  6
BYLAYER
 10
5.4375
 20
12.7911939793
 11
5.4375
 21
12.835382323
  0
LINE
  5
269
100
AcDbEntity
  8
LAYER_CHAMFER_FEAT
100
AcDbLine
 62
7
  6
BYLAYER
 10
5.5365192379
 20
12.705033
 11
5.58386196
 21
12.705033
  0
LINE
  5
26A
100
AcDbEntity
  8
LAYER_CHAMFER_FEAT
100
AcDbLine
 62
7
  6
BYLAYER
 10
5.538828639
 20
12.709033
 11
5.586171361
 21
12.709033
  0
LINE
  5
26B
100
AcDbEntity
  8
LAYER_CUT_FEAT
100
AcDbLine
 62
7
  6
BYLAYER
 10
5.3177083333
 20
12.7418151875
 11
5.4322916667
 21
12.7418151875
  0
LINE
  5
26C
100
AcDbEntity
  8
LAYER_CHAMFER_FEAT
100
AcDbLine
 62
7
  6
BYLAYER
 10
5.5105384758
 20
12.750033
 11
5.5151572779
 21
12.750033
  0
LINE
  5
26D
100
AcDbEntity
  8
LAYER_CHAMFER_FEAT
100
AcDbLine
 62
7
  6
BYLAYER
 10
5.5365192379
 20
12.795033
 11
5.5105384758
 21
12.750033
  0
LINE
  5
26E
100
AcDbEntity
  8
LAYER_CHAMFER_FEAT
100
AcDbLine
 62
7
  6
BYLAYER
 10
5.538828639
 20
12.791033
 11
5.5151572779
 21
12.750033
  0
LINE
  5
26F
100
AcDbEntity
  8
LAYER_CUT_FEAT
100
AcDbLine
 62
7
  6
BYLAYER
 10
5.3177083333
 20
12.7582508125
 11
5.4322916667
 21
12.7582508125
  0
LINE
  5
270
100
AcDbEntity
  8
LAYER_CHAMFER_FEAT
100
AcDbLine
 62
7
  6
BYLAYER
 10
5.586171361
 20
12.791033
 11
5.538828639
 21
12.791033
  0
LINE
  5
271
100
AcDbEntity
  8
LAYER_CHAMFER_FEAT
100
AcDbLine
 62
7
  6
BYLAYER
 10
5.5884807621
 20
12.795033
 11
5.5365192379
 21
12.795033
  0
LINE
  5
272
100
AcDbEntity
  8
LAYER_CHAMFER_FEAT
100
AcDbLine
 62
7
  6
BYLAYER
 10
5.5105384758
 20
12.750033
 11
5.5365192379
 21
12.705033
  0
LINE
  5
273
100
AcDbEntity
  8
LAYER_CHAMFER_FEAT
100
AcDbLine
 62
7
  6
BYLAYER
 10
5.5151572779
 20
12.750033
 11
5.538828639
 21
12.709033
  0
LINE
  5
274
100
AcDbEntity
  8
LAYER_CHAMFER_FEAT
100
AcDbLine
 62
7
  6
BYLAYER
 10
5.5884807621
 20
12.795033
 11
5.586171361
 21
12.791033
  0
LINE
  5
275
100
AcDbEntity
  8
LAYER_CHAMFER_FEAT
100
AcDbLine
 62
7
  6
BYLAYER
 10
5.5365192379
 20
12.705033
 11
5.538828639
 21
12.709033
  0
LINE
  5
276
100
AcDbEntity
  8
LAYER_CHAMFER_FEAT
100
AcDbLine
 62
7
  6
BYLAYER
 10
5.58386196
 20
12.705033
 11
5.6121521232
 21
12.754033
  0
LINE
  5
277
100
AcDbEntity
  8
LAYER_CUT_FEAT
100
AcDbLine
 62
7
  6
BYLAYER
 10
5.3177083333
 20
12.8092367283
 11
5.4322916667
 21
12.8092367283
  0
LINE
  5
278
100
AcDbEntity
  8
LAYER_CUT_FEAT
100
AcDbLine
 62
7
  6
BYLAYER
 10
5.3177083333
 20
12.8255932112
 11
5.4322916667
 21
12.8255932112
  0
LINE
  5
279
100
AcDbEntity
  8
LAYER_CHAMFER_FEAT
100
AcDbLine
 62
7
  6
BYLAYER
 10
5.5365192379
 20
12.795033
 11
5.538828639
 21
12.791033
  0
LINE
  5
27A
100
AcDbEntity
  8
LAYER_CHAMFER_FEAT
100
AcDbLine
 62
7
  6
BYLAYER
 10
5.6098427221
 20
12.750033
 11
5.586171361
 21
12.791033
  0
LINE
  5
27B
100
AcDbEntity
  8
LAYER_CHAMFER_FEAT
100
AcDbLine
 62
7
  6
BYLAYER
 10
5.6121521232
 20
12.754033
 11
5.5884807621
 21
12.795033
  0
LINE
  5
27C
100
AcDbEntity
  8
LAYER_FEATURE
100
AcDbLine
 62
7
  6
BYLAYER
 10
5.6781325
 20
12.500033
 11
5.6781325
 21
13.000033
  0
LINE
  5
27D
100
AcDbEntity
  8
LAYER_FEATURE
100
AcDbLine
 62
7
  6
BYLAYER
 10
5.6875
 20
12.5094005
 11
5.6875
 21
12.9906655
  0
LINE
  5
27E
100
AcDbEntity
  8
LAYER_FEATURE
100
AcDbLine
 62
7
  6
BYLAYER
 10
5.4468675
 20
13.000033
 11
5.6781325
 21
13.000033
  0
LINE
  5
27F
100
AcDbEntity
  8
LAYER_FEATURE
100
AcDbLine
 62
7
  6
BYLAYER
 10
5.6781325
 20
12.500033
 11
5.6875
 21
12.5094005
  0
LINE
  5
280
100
AcDbEntity
  8
LAYER_FEATURE
100
AcDbLine
 62
7
  6
BYLAYER
 10
5.6781325
 20
13.000033
 11
5.6875
 21
12.9906655
  0
LINE
  5
281
100
AcDbEntity
  8
0
100
AcDbLine
 62
7
  6
BYLAYER
 10
5.3125
 20
13.3896996667
 11
5.4375
 21
13.3896996667
  0
LINE
  5
282
100
AcDbEntity
  8
LAYER_FEATURE
100
AcDbLine
 62
7
  6
BYLAYER
 10
16.4315
 20
4.494386
 11
16.4395
 21
4.502386
  0
LINE
  5
283
100
AcDbEntity
  8
LAYER_FEATURE
100
AcDbLine
 62
7
  6
BYLAYER
 10
16.4315
 20
4.4928141722
 11
16.4315
 21
4.494386
  0
LINE
  5
284
100
AcDbEntity
  8
LAYER_FEATURE
100
AcDbLine
 62
7
  6
BYLAYER
 10
16.5685
 20
4.4928139456
 11
16.5685
 21
4.494386
  0
LINE
  5
285
100
AcDbEntity
  8
LAYER_FEATURE
100
AcDbLine
 62
7
  6
BYLAYER
 10
16.5685
 20
4.494386
 11
16.5627295216
 21
4.494386
  0
LINE
  5
286
100
AcDbEntity
  8
LAYER_FEATURE
100
AcDbLine
 62
7
  6
BYLAYER
 10
16.4372706345
 20
4.494386
 11
16.4315
 21
4.494386
  0
LINE
  5
287
100
AcDbEntity
  8
LAYER_FEATURE
100
AcDbLine
 62
7
  6
BYLAYER
 10
16.5605
 20
4.502386
 11
16.4395
 21
4.502386
  0
LINE
  5
288
100
AcDbEntity
  8
LAYER_FEATURE
100
AcDbLine
 62
7
  6
BYLAYER
 10
16.5685
 20
4.494386
 11
16.5605
 21
4.502386
  0
LINE
  5
289
100
AcDbEntity
  8
0
100
AcDbLine
 62
7
  6
BYLAYER
 10
16.4049334915
 20
12.1103663333
 11
16.5200661158
 21
12.1103663333
  0
LINE
  5
28A
100
AcDbEntity
  8
LAYER_FEATURE
100
AcDbLine
 62
7
  6
BYLAYER
 10
16.5286941547
 20
12.500033
 11
16.7417033254
 21
12.500033
  0
LINE
  5
28B
100
AcDbEntity
  8
LAYER_CHAMFER_FEAT
100
AcDbLine
 62
7
  6
BYLAYER
 10
16.5459013914
 20
12.940685203
 11
16.5110785402
 21
12.9054354921
  0
LINE
  5
28C
100
AcDbEntity
  8
LAYER_CHAMFER_FEAT
100
AcDbLine
 62
7
  6
BYLAYER
 10
16.5482803928
 20
12.9350654555
 11
16.5165529062
 21
12.9029490522
  0
LINE
  5
28D
100
AcDbEntity
  8
LAYER_CUT_FEAT
100
AcDbLine
 62
7
  6
BYLAYER
 10
16.5604164834
 20
12.9103347029
 11
16.5286889969
 21
12.8782182996
  0
LINE
  5
28E
100
AcDbEntity
  8
LAYER_CHAMFER_FEAT
100
AcDbLine
 62
7
  6
BYLAYER
 10
16.5677209569
 20
12.8701857811
 11
16.6056391726
 21
12.9085687997
  0
LINE
  5
28F
100
AcDbEntity
  8
LAYER_CHAMFER_FEAT
100
AcDbLine
 62
7
  6
BYLAYER
 10
16.5937611245
 20
12.940685203
 11
16.5918859274
 21
12.9350654555
  0
LINE
  5
290
100
AcDbEntity
  8
LAYER_FEATURE
100
AcDbLine
 62
7
  6
BYLAYER
 10
16.5010520751
 20
12.8679051297
 11
16.5036709621
 21
12.8625683992
  0
LINE
  5
291
100
AcDbEntity
  8
LAYER_FEATURE
100
AcDbLine
 62
7
  6
BYLAYER
 10
16.5006286466
 20
12.8676330225
 11
16.5006033971
 21
12.8676845555
  0
LWPOLYLINE
  5
292
100
AcDbEntity
  8
LAYER_FEATURE
100
AcDbPolyline
 62
7
  6
BYLAYER
 90
24
 70
0
 10
16.6246558151
 20
12.9028218954
 10
16.623491329
 20
12.8993947649
 10
16.6209232647
 20
12.8932985988
 10
16.6176125127
 20
12.8869801728
 10
16.6135915636
 20
12.8805970718
 10
16.6089135803
 20
12.874299872
 10
16.6036385424
 20
12.8682227365
 10
16.5978488306
 20
12.8625063722
 10
16.5916077163
 20
12.8572537648
 10
16.5849889582
 20
12.852568208
 10
16.5780687696
 20
12.8485402494
 10
16.5709323641
 20
12.845253022
 10
16.5636587832
 20
12.8427675543
 10
16.5563445647
 20
12.841135772
 10
16.5490565363
 20
12.8403817345
 10
16.5418777575
 20
12.8405228698
 10
16.5348844304
 20
12.8415589598
 10
16.5281554174
 20
12.8434832404
 10
16.5217987901
 20
12.8462635394
 10
16.5159111041
 20
12.8498585099
 10
16.5106190943
 20
12.8541860283
 10
16.5060319366
 20
12.8591489411
 10
16.5022458003
 20
12.8646324963
 10
16.5006035909
 20
12.8676850456
  0
LINE
  5
293
100
AcDbEntity
  8
LAYER_CHAMFER_FEAT
100
AcDbLine
 62
7
  6
BYLAYER
 10
16.5165529062
 20
12.9029490522
 11
16.5286889969
 21
12.8782182996
  0
LINE
  5
294
100
AcDbEntity
  8
LAYER_CHAMFER_FEAT
100
AcDbLine
 62
7
  6
BYLAYER
 10
16.5110785402
 20
12.9054354921
 11
16.5241154223
 21
12.8701857811
  0
LINE
  5
295
100
AcDbEntity
  8
LAYER_CHAMFER_FEAT
100
AcDbLine
 62
7
  6
BYLAYER
 10
16.5165529062
 20
12.9029490522
 11
16.5284309543
 21
12.8708326489
  0
LINE
  5
296
100
AcDbEntity
  8
LAYER_CUT_FEAT
100
AcDbLine
 62
7
  6
BYLAYER
 10
16.5286889969
 20
12.8782182996
 11
16.5314205329
 21
12.8708326489
  0
LINE
  5
297
100
AcDbEntity
  8
LAYER_CHAMFER_FEAT
100
AcDbLine
 62
7
  6
BYLAYER
 10
16.5241154223
 20
12.8701857811
 11
16.5284309543
 21
12.8708326489
  0
LINE
  5
298
100
AcDbEntity
  8
LAYER_CHAMFER_FEAT
100
AcDbLine
 62
7
  6
BYLAYER
 10
16.5241154223
 20
12.8701857811
 11
16.5677209569
 21
12.8701857811
  0
LINE
  5
299
100
AcDbEntity
  8
LAYER_CHAMFER_FEAT
100
AcDbLine
 62
7
  6
BYLAYER
 10
16.5284309543
 20
12.8708326489
 11
16.5683599914
 21
12.8708326489
  0
LINE
  5
29A
100
AcDbEntity
  8
LAYER_CUT_FEAT
100
AcDbLine
 62
7
  6
BYLAYER
 10
16.6010324394
 20
12.9103347029
 11
16.5604164834
 21
12.9103347029
  0
LINE
  5
29B
100
AcDbEntity
  8
LAYER_CHAMFER_FEAT
100
AcDbLine
 62
7
  6
BYLAYER
 10
16.5110785402
 20
12.9054354921
 11
16.5165529062
 21
12.9029490522
  0
LINE
  5
29C
100
AcDbEntity
  8
LAYER_CHAMFER_FEAT
100
AcDbLine
 62
7
  6
BYLAYER
 10
16.5482803928
 20
12.9350654555
 11
16.5604164834
 21
12.9103347029
  0
LINE
  5
29D
100
AcDbEntity
  8
LAYER_CHAMFER_FEAT
100
AcDbLine
 62
7
  6
BYLAYER
 10
16.5459013914
 20
12.940685203
 11
16.5482803928
 21
12.9350654555
  0
LINE
  5
29E
100
AcDbEntity
  8
LAYER_CHAMFER_FEAT
100
AcDbLine
 62
7
  6
BYLAYER
 10
16.602762506
 20
12.9056568708
 11
16.5918859274
 21
12.9350654555
  0
LINE
  5
29F
100
AcDbEntity
  8
LAYER_CHAMFER_FEAT
100
AcDbLine
 62
7
  6
BYLAYER
 10
16.6056391726
 20
12.9085687997
 11
16.5937611245
 21
12.940685203
  0
LINE
  5
2A0
100
AcDbEntity
  8
LAYER_CHAMFER_FEAT
100
AcDbLine
 62
7
  6
BYLAYER
 10
16.5918859274
 20
12.9350654555
 11
16.5482803928
 21
12.9350654555
  0
LINE
  5
2A1
100
AcDbEntity
  8
LAYER_CHAMFER_FEAT
100
AcDbLine
 62
7
  6
BYLAYER
 10
16.5937611245
 20
12.940685203
 11
16.5459013914
 21
12.940685203
  0
LINE
  5
2A2
100
AcDbEntity
  8
LAYER_FEATURE
100
AcDbLine
 62
7
  6
BYLAYER
 10
16.6241180398
 20
12.9281031252
 11
16.6258727278
 21
12.9245274471
  0
LINE
  5
2A3
100
AcDbEntity
  8
LAYER_FEATURE
100
AcDbLine
 62
7
  6
BYLAYER
 10
16.6245164448
 20
12.9284262248
 11
16.6245709308
 21
12.9283144886
  0
LWPOLYLINE
  5
2A4
100
AcDbEntity
  8
LAYER_FEATURE
100
AcDbPolyline
 62
7
  6
BYLAYER
 90
7
 70
0
 10
16.624566264
 20
12.9283230816
 10
16.6252186195
 20
12.9268338802
 10
16.6264910495
 20
12.9223471998
 10
16.6269721867
 20
12.9173107178
 10
16.626657048
 20
12.9118812401
 10
16.6256120515
 20
12.906276553
 10
16.6246590151
 20
12.9028321179
  0
LINE
  5
2A5
100
AcDbEntity
  8
LAYER_FEATURE
100
AcDbLine
 62
7
  6
BYLAYER
 10
16.5286941547
 20
13.000033
 11
16.7417033254
 21
13.000033
  0
LINE
  5
2A6
100
AcDbEntity
  8
LAYER_FEATURE
100
AcDbLine
 62
7
  6
BYLAYER
 10
16.782864184
 20
12.5234764543
 11
16.7899499255
 21
12.5319655281
  0
LINE
  5
2A7
100
AcDbEntity
  8
LAYER_FEATURE
100
AcDbLine
 62
7
  6
BYLAYER
 10
16.782864184
 20
12.9765895457
 11
16.7899499255
 21
12.9681004719
  0
LINE
  5
2A8
100
AcDbEntity
  8
LAYER_CUT_FEAT
100
AcDbLine
 62
7
  6
BYLAYER
 10
16.1980401278
 20
13.1709220884
 11
16.3035783667
 21
13.1709220884
  0
LINE
  5
2A9
100
AcDbEntity
  8
LAYER_CUT_FEAT
100
AcDbLine
 62
7
  6
BYLAYER
 10
16.2020186391
 20
13.1837965557
 11
16.307556878
 21
13.1837965557
  0
LINE
  5
2AA
100
AcDbEntity
  8
LAYER_CUT_FEAT
100
AcDbLine
 62
7
  6
BYLAYER
 10
16.2151246742
 20
13.2221782009
 11
16.3206629131
 21
13.2221782009
  0
LINE
  5
2AB
100
AcDbEntity
  8
LAYER_CUT_FEAT
100
AcDbLine
 62
7
  6
BYLAYER
 10
16.2195754421
 20
13.2339892773
 11
16.325113681
 21
13.2339892773
  0
LINE
  5
2AC
100
AcDbEntity
  8
0
100
AcDbLine
 62
7
  6
BYLAYER
 10
16.4049334915
 20
13.3896996667
 11
16.5200661158
 21
13.3896996667
  0
CIRCLE
  5
2AD
100
AcDbEntity
  8
LAYER_AXIS
100
AcDbCircle
 62
7
  6
BYLAYER
 10
5.5625
 20
4.25086
 40
0.035
  0
ARC
  5
2AE
100
AcDbEntity
  8
LAYER_FEATURE
100
AcDbCircle
 62
7
  6
BYLAYER
 10
5.4468675
 20
3.9914925
 40
0.0093675
100
AcDbArc
 50
90.0
 51
179.9999999993
  0
ARC
  5
2AF
100
AcDbEntity
  8
LAYER_FEATURE
100
AcDbCircle
 62
7
  6
BYLAYER
 10
5.4468675
 20
4.5102275
 40
0.0093675
100
AcDbArc
 50
180.0000000007
 51
270.0
  0
ARC
  5
2B0
100
AcDbEntity
  8
LAYER_FEATURE
100
AcDbCircle
 62
7
  6
BYLAYER
 10
5.4855005265
 20
4.492859695
 40
0.0079999453
100
AcDbArc
 50
72.285609372
 51
90.0037703914
  0
ARC
  5
2B1
100
AcDbEntity
  8
LAYER_FEATURE
100
AcDbCircle
 62
7
  6
BYLAYER
 10
5.639499406
 20
4.4928596519
 40
0.0079999383
100
AcDbArc
 50
89.9957462225
 51
107.7132113587
  0
ARC
  5
2B2
100
AcDbEntity
  8
LAYER_AXIS
100
AcDbCircle
 62
7
  6
BYLAYER
 10
5.5625
 20
12.2524924507
 40
0.2500000003
100
AcDbArc
 50
81.9522395293
 51
98.0477604707
  0
CIRCLE
  5
2B3
100
AcDbEntity
  8
LAYER_FEATURE
100
AcDbCircle
 62
7
  6
BYLAYER
 10
5.5625
 20
12.750033
 40
0.069
  0
CIRCLE
  5
2B4
100
AcDbEntity
  8
LAYER_FEATURE
100
AcDbCircle
 62
7
  6
BYLAYER
 10
5.5625
 20
12.750033
 40
0.0685
  0
CIRCLE
  5
2B5
100
AcDbEntity
  8
LAYER_FEATURE
100
AcDbCircle
 62
7
  6
BYLAYER
 10
5.5625
 20
12.750033
 40
0.0605
  0
ARC
  5
2B6
100
AcDbEntity
  8
LAYER_FEATURE
100
AcDbCircle
 62
7
  6
BYLAYER
 10
5.4468675
 20
12.4906655
 40
0.0093675
100
AcDbArc
 50
90.0
 51
180.0
  0
ARC
  5
2B7
100
AcDbEntity
  8
LAYER_FEATURE
100
AcDbCircle
 62
7
  6
BYLAYER
 10
5.4468675
 20
13.0094005
 40
0.0093675
100
AcDbArc
 50
180.0
 51
270.0
  0
ARC
  5
2B8
100
AcDbEntity
  8
LAYER_CUT_FEAT
100
AcDbCircle
 62
7
  6
BYLAYER
 10
16.5
 20
4.252386
 40
0.6875
100
AcDbArc
 50
89.3151168207
 51
90.6848831793
  0
ARC
  5
2B9
100
AcDbEntity
  8
LAYER_CUT_FEAT
100
AcDbCircle
 62
7
  6
BYLAYER
 10
16.5
 20
4.252386
 40
0.6875
100
AcDbArc
 50
83.6901168207
 51
85.0598831793
  0
ARC
  5
2BA
100
AcDbEntity
  8
LAYER_FEATURE
100
AcDbCircle
 62
7
  6
BYLAYER
 10
16.5
 20
4.252386
 40
0.6396666667
100
AcDbArc
 50
87.0415195632
 51
87.3334804368
  0
ARC
  5
2BB
100
AcDbEntity
  8
LAYER_FEATURE
100
AcDbCircle
 62
7
  6
BYLAYER
 10
16.5
 20
4.252386
 40
0.6396666667
100
AcDbArc
 50
92.6665195632
 51
81.7084804368
  0
ARC
  5
2BC
100
AcDbEntity
  8
LAYER_CUT_FEAT
100
AcDbCircle
 62
7
  6
BYLAYER
 10
16.8190368558
 20
4.7919289976
 40
0.2977504294
100
AcDbArc
 50
150.7685412096
 51
151.8642774891
  0
ARC
  5
2BD
100
AcDbEntity
  8
LAYER_CUT_FEAT
100
AcDbCircle
 62
7
  6
BYLAYER
 10
16.7646161444
 20
4.8206020308
 40
0.2977504294
100
AcDbArc
 50
156.3935412095
 51
157.4892774891
  0
ARC
  5
2BE
100
AcDbEntity
  8
LAYER_CUT_FEAT
100
AcDbCircle
 62
7
  6
BYLAYER
 10
16.2353838556
 20
4.8206020308
 40
0.2977504294
100
AcDbArc
 50
22.5107225109
 51
23.6064587905
  0
ARC
  5
2BF
100
AcDbEntity
  8
LAYER_CUT_FEAT
100
AcDbCircle
 62
7
  6
BYLAYER
 10
16.2923529651
 20
4.8438028331
 40
0.2977504294
100
AcDbArc
 50
16.8857225108
 51
17.9814587905
  0
CIRCLE
  5
2C0
100
AcDbEntity
  8
LAYER_FEATURE
100
AcDbCircle
 62
7
  6
BYLAYER
 10
16.5
 20
4.252386
 40
0.25
  0
CIRCLE
  5
2C1
100
AcDbEntity
  8
LAYER_FEATURE
100
AcDbCircle
 62
7
  6
BYLAYER
 10
16.5
 20
4.252386
 40
0.2406325
  0
CIRCLE
  5
2C2
100
AcDbEntity
  8
LAYER_CUT_FEAT
100
AcDbCircle
 62
7
  6
BYLAYER
 10
16.5
 20
4.252386
 40
0.1342675
  0
CIRCLE
  5
2C3
100
AcDbEntity
  8
LAYER_CUT_FEAT
100
AcDbCircle
 62
7
  6
BYLAYER
 10
16.5
 20
4.252386
 40
0.1249
  0
ARC
  5
2C4
100
AcDbEntity
  8
LAYER_FEATURE
100
AcDbCircle
 62
7
  6
BYLAYER
 10
16.5301370482
 20
4.8994762578
 40
0.008125
100
AcDbArc
 50
192.3832476448
 51
267.3334804368
  0
ARC
  5
2C5
100
AcDbEntity
  8
LAYER_FEATURE
100
AcDbCircle
 62
7
  6
BYLAYER
 10
16.5334340066
 20
4.8993142886
 40
0.008125
100
AcDbArc
 50
267.0415195632
 51
341.9917523552
  0
ARC
  5
2C6
100
AcDbEntity
  8
LAYER_FEATURE
100
AcDbCircle
 62
7
  6
BYLAYER
 10
16.5934178666
 20
4.8934063941
 40
0.008125
100
AcDbArc
 50
186.7582476448
 51
261.7084804368
  0
ARC
  5
2C7
100
AcDbEntity
  8
LAYER_FEATURE
100
AcDbCircle
 62
7
  6
BYLAYER
 10
16.4698629518
 20
4.8994762578
 40
0.008125
100
AcDbArc
 50
272.6665195632
 51
347.6167523552
  0
ARC
  5
2C8
100
AcDbEntity
  8
LAYER_CUT_FEAT
100
AcDbCircle
 62
7
  6
BYLAYER
 10
17.1428502299
 20
12.8833470935
 40
0.9903549888
100
AcDbArc
 50
163.0699781233
 51
163.2801654056
  0
ARC
  5
2C9
100
AcDbEntity
  8
LAYER_CUT_FEAT
100
AcDbCircle
 62
7
  6
BYLAYER
 10
17.121773481
 20
12.8897771003
 40
0.968319242
100
AcDbArc
 50
162.3718065105
 51
163.0707896141
  0
ARC
  5
2CA
100
AcDbEntity
  8
LAYER_FEATURE
100
AcDbCircle
 62
7
  6
BYLAYER
 10
17.111732927
 20
12.9057740696
 40
0.8231207326
100
AcDbArc
 50
161.0565646362
 51
161.2368303428
  0
ARC
  5
2CB
100
AcDbEntity
  8
LAYER_CUT_FEAT
100
AcDbCircle
 62
7
  6
BYLAYER
 10
16.9784088799
 20
12.9383148878
 40
0.8169440265
100
AcDbArc
 50
159.5847365534
 51
159.8633121297
  0
ARC
  5
2CC
100
AcDbEntity
  8
LAYER_CUT_FEAT
100
AcDbCircle
 62
7
  6
BYLAYER
 10
16.958044885
 20
12.9459058964
 40
0.7952112038
100
AcDbArc
 50
158.836254399
 51
159.5855151821
  0
ARC
  5
2CD
100
AcDbEntity
  8
LAYER_FEATURE
100
AcDbCircle
 62
7
  6
BYLAYER
 10
16.7298084924
 20
12.5801557443
 40
0.0769881356
100
AcDbArc
 50
312.7576880956
 51
313.0631111867
  0
ARC
  5
2CE
100
AcDbEntity
  8
LAYER_FEATURE
100
AcDbCircle
 62
7
  6
BYLAYER
 10
16.5735920117
 20
12.8893208515
 40
0.0635059192
100
AcDbArc
 50
86.0998654666
 51
90.0078724823
  0
ARC
  5
2CF
100
AcDbEntity
  8
LAYER_FEATURE
100
AcDbCircle
 62
7
  6
BYLAYER
 10
16.573776999
 20
12.8923585431
 40
0.0604626841
100
AcDbArc
 50
83.3391880714
 51
86.0789630799
  0
ARC
  5
2D0
100
AcDbEntity
  8
LAYER_CUT_FEAT
100
AcDbCircle
 62
7
  6
BYLAYER
 10
16.7528619485
 20
12.837655685
 40
0.0407085329
100
AcDbArc
 50
132.1775275736
 51
134.0421848429
  0
ARC
  5
2D1
100
AcDbEntity
  8
LAYER_CUT_FEAT
100
AcDbCircle
 62
7
  6
BYLAYER
 10
16.7523988439
 20
12.6619152661
 40
0.0400309725
100
AcDbArc
 50
226.4024420605
 51
228.2626077391
  0
ARC
  5
2D2
100
AcDbEntity
  8
LAYER_FEATURE
100
AcDbCircle
 62
7
  6
BYLAYER
 10
16.5320240825
 20
12.8860663488
 40
0.0358048648
100
AcDbArc
 50
206.1512204168
 51
210.6782730702
  0
ARC
  5
2D3
100
AcDbEntity
  8
LAYER_FEATURE
100
AcDbCircle
 62
7
  6
BYLAYER
 10
16.5908488631
 20
12.9149177463
 40
0.0356750359
100
AcDbArc
 50
20.2946416136
 51
26.1482690951
  0
SPLINE
  5
2D4
100
AcDbEntity
  8
LAYER_CUT_FEAT
100
AcDbSpline
 62
7
  6
BYLAYER
 70
0
 71
3
 72
11
 73
7
 74
0
 42
0.0000001
 43
0.0000001
 44
0.0000000001
 40
0.0
 40
0.0
 40
0.0
 40
0.0
 40
0.2596523053
 40
0.5127731891
 40
0.7584889563
 40
1.0
 40
1.0
 40
1.0
 40
1.0
 10
5.3177083333
 20
4.9383108837
 30
0.0
 10
5.3170026754
 20
4.9383108837
 30
0.0
 10
5.3155922364
 20
4.9380180693
 30
0.0
 10
5.3138617899
 20
4.9368020965
 30
0.0
 10
5.3127527597
 20
4.9350653898
 30
0.0
 10
5.3125
 20
4.9337280209
 30
0.0
 10
5.3125
 20
4.9330716655
 30
0.0
  0
SPLINE
  5
2D5
100
AcDbEntity
  8
LAYER_CUT_FEAT
100
AcDbSpline
 62
7
  6
BYLAYER
 70
0
 71
3
 72
11
 73
7
 74
0
 42
0.0000001
 43
0.0000001
 44
0.0000000001
 40
0.0
 40
0.0
 40
0.0
 40
0.0
 40
0.2414849888
 40
0.4872428382
 40
0.7403383135
 40
1.0
 40
1.0
 40
1.0
 40
1.0
 10
5.4375
 20
4.9330716655
 30
0.0
 10
5.4375
 20
4.9337279503
 30
0.0
 10
5.4372473163
 20
4.9350653782
 30
0.0
 10
5.4361382072
 20
4.9368020304
 30
0.0
 10
5.4344077631
 20
4.9380180889
 30
0.0
 10
5.4329973503
 20
4.9383108837
 30
0.0
 10
5.4322916667
 20
4.9383108837
 30
0.0
  0
SPLINE
  5
2D6
100
AcDbEntity
  8
LAYER_CUT_FEAT
100
AcDbSpline
 62
7
  6
BYLAYER
 70
0
 71
3
 72
16
 73
12
 74
0
 42
0.0000001
 43
0.0000001
 44
0.0000000001
 40
0.0
 40
0.0
 40
0.0
 40
0.0
 40
0.1750543402
 40
0.3436134766
 40
0.4983554149
 40
0.6354585973
 40
0.7527077701
 40
0.8502613184
 40
0.9305164115
 40
0.9660970507
 40
1.0
 40
1.0
 40
1.0
 40
1.0
 10
5.3177083333
 20
12.7418151875
 30
0.0
 10
5.3173545829
 20
12.7418151875
 30
0.0
 10
5.3166598495
 20
12.7417833966
 30
0.0
 10
5.3156604452
 20
12.7416481717
 30
0.0
 10
5.3147540245
 20
12.7414306749
 30
0.0
 10
5.3139749895
 20
12.7411478255
 30
0.0
 10
5.3133445716
 20
12.7408121455
 30
0.0
 10
5.3128750879
 20
12.7404378573
 30
0.0
 10
5.3126162477
 20
12.7400820838
 30
0.0
 10
5.3125164744
 20
12.7397943118
 30
0.0
 10
5.3125
 20
12.7396534568
 30
0.0
 10
5.3125
 20
12.7395849456
 30
0.0
  0
SPLINE
  5
2D7
100
AcDbEntity
  8
LAYER_CUT_FEAT
100
AcDbSpline
 62
7
  6
BYLAYER
 70
0
 71
3
 72
16
 73
12
 74
0
 42
0.0000001
 43
0.0000001
 44
0.0000000001
 40
0.0
 40
0.0
 40
0.0
 40
0.0
 40
0.0339004034
 40
0.0694742313
 40
0.1497198208
 40
0.2472943281
 40
0.3645608501
 40
0.5016486603
 40
0.6563751629
 40
0.8249406496
 40
1.0
 40
1.0
 40
1.0
 40
1.0
 10
5.4375
 20
12.7395849456
 30
0.0
 10
5.4375
 20
12.7396534518
 30
0.0
 10
5.4374835481
 20
12.7397942883
 30
0.0
 10
5.4373838422
 20
12.7400820458
 30
0.0
 10
5.4371249766
 20
12.7404378288
 30
0.0
 10
5.4366553945
 20
12.7408120821
 30
0.0
 10
5.4360249696
 20
12.7411478377
 30
0.0
 10
5.4352459692
 20
12.7414307224
 30
0.0
 10
5.4343395827
 20
12.7416481621
 30
0.0
 10
5.4333401849
 20
12.7417833711
 30
0.0
 10
5.432645428
 20
12.7418151875
 30
0.0
 10
5.4322916667
 20
12.7418151875
 30
0.0
  0
SPLINE
  5
2D8
100
AcDbEntity
  8
LAYER_CUT_FEAT
100
AcDbSpline
 62
7
  6
BYLAYER
 70
0
 71
3
 72
16
 73
12
 74
0
 42
0.0000001
 43
0.0000001
 44
0.0000000001
 40
0.0
 40
0.0
 40
0.0
 40
0.0
 40
0.0339056713
 40
0.0694941493
 40
0.1497676737
 40
0.2473256239
 40
0.3645794237
 40
0.5016974746
 40
0.6564425473
 40
0.8249613799
 40
1.0
 40
1.0
 40
1.0
 40
1.0
 10
5.3125
 20
12.7604810544
 30
0.0
 10
5.3125
 20
12.7604125379
 30
0.0
 10
5.3125164958
 20
12.7602716619
 30
0.0
 10
5.3126163441
 20
12.759983856
 30
0.0
 10
5.3128752187
 20
12.7596280422
 30
0.0
 10
5.3133447272
 20
12.7592536913
 30
0.0
 10
5.3139752278
 20
12.7589180572
 30
0.0
 10
5.3147543327
 20
12.7586352825
 30
0.0
 10
5.3156607016
 20
12.7584177891
 30
0.0
 10
5.3166599943
 20
12.7582825363
 30
0.0
 10
5.3173546156
 20
12.7582508125
 30
0.0
 10
5.3177083333
 20
12.7582508125
 30
0.0
  0
SPLINE
  5
2D9
100
AcDbEntity
  8
LAYER_CUT_FEAT
100
AcDbSpline
 62
7
  6
BYLAYER
 70
0
 71
3
 72
16
 73
12
 74
0
 42
0.0000001
 43
0.0000001
 44
0.0000000001
 40
0.0
 40
0.0
 40
0.0
 40
0.0
 40
0.1750385276
 40
0.3435539548
 40
0.4982926744
 40
0.6354037605
 40
0.7526608933
 40
0.8502251488
 40
0.9305037183
 40
0.9660937938
 40
1.0
 40
1.0
 40
1.0
 40
1.0
 10
5.4322916667
 20
12.7582508125
 30
0.0
 10
5.432645384
 20
12.7582508125
 30
0.0
 10
5.433339998
 20
12.7582825357
 30
0.0
 10
5.4343392698
 20
12.7584177862
 30
0.0
 10
5.4352456087
 20
12.758635258
 30
0.0
 10
5.4360246935
 20
12.7589180267
 30
0.0
 10
5.4366552051
 20
12.759253649
 30
0.0
 10
5.4371247462
 20
12.759628008
 30
0.0
 10
5.4373836395
 20
12.7599838403
 30
0.0
 10
5.437483501
 20
12.7602716566
 30
0.0
 10
5.4375
 20
12.7604125368
 30
0.0
 10
5.4375
 20
12.7604810544
 30
0.0
  0
SPLINE
  5
2DA
100
AcDbEntity
  8
LAYER_CUT_FEAT
100
AcDbSpline
 62
7
  6
BYLAYER
 70
0
 71
3
 72
15
 73
11
 74
0
 42
0.0000001
 43
0.0000001
 44
0.0000000001
 40
0.0
 40
0.0
 40
0.0
 40
0.0
 40
0.1666687528
 40
0.3278075632
 40
0.4770799103
 40
0.6114078873
 40
0.7292243187
 40
0.8311802735
 40
0.9197721163
 40
1.0
 40
1.0
 40
1.0
 40
1.0
 10
5.3177083333
 20
12.8092367283
 30
0.0
 10
5.3173544041
 20
12.8092367283
 30
0.0
 10
5.3166577557
 20
12.8091978053
 30
0.0
 10
5.3156561498
 20
12.8090320837
 30
0.0
 10
5.3147475404
 20
12.808765264
 30
0.0
 10
5.3139661556
 20
12.808417148
 30
0.0
 10
5.3133338136
 20
12.8080031105
 30
0.0
 10
5.3128642685
 20
12.8075384248
 30
0.0
 10
5.3125705098
 20
12.8070347894
 30
0.0
 10
5.3125
 20
12.8066740602
 30
0.0
 10
5.3125
 20
12.8065036924
 30
0.0
  0
SPLINE
  5
2DB
100
AcDbEntity
  8
LAYER_CUT_FEAT
100
AcDbSpline
 62
7
  6
BYLAYER
 70
0
 71
3
 72
15
 73
11
 74
0
 42
0.0000001
 43
0.0000001
 44
0.0000000001
 40
0.0
 40
0.0
 40
0.0
 40
0.0
 40
0.0802182708
 40
0.1687998026
 40
0.2707758641
 40
0.3886106204
 40
0.5229244453
 40
0.6721815389
 40
0.8333263572
 40
1.0
 40
1.0
 40
1.0
 40
1.0
 10
5.4375
 20
12.8065036924
 30
0.0
 10
5.4375
 20
12.8066740401
 30
0.0
 10
5.437429581
 20
12.8070347398
 30
0.0
 10
5.4371358029
 20
12.8075383867
 30
0.0
 10
5.4366661456
 20
12.8080030387
 30
0.0
 10
5.4360338045
 20
12.8084171598
 30
0.0
 10
5.4352524573
 20
12.8087653214
 30
0.0
 10
5.4343438763
 20
12.8090320727
 30
0.0
 10
5.4333422783
 20
12.8091977742
 30
0.0
 10
5.4326456069
 20
12.8092367283
 30
0.0
 10
5.4322916667
 20
12.8092367283
 30
0.0
  0
SPLINE
  5
2DC
100
AcDbEntity
  8
LAYER_CUT_FEAT
100
AcDbSpline
 62
7
  6
BYLAYER
 70
0
 71
3
 72
17
 73
13
 74
0
 42
0.0000001
 43
0.0000001
 44
0.0000000001
 40
0.0
 40
0.0
 40
0.0
 40
0.0
 40
0.0271686787
 40
0.0566501068
 40
0.0899897926
 40
0.1282294251
 40
0.2215760305
 40
0.3387420807
 40
0.4791549801
 40
0.6398425437
 40
0.8161962401
 40
1.0
 40
1.0
 40
1.0
 40
1.0
 10
5.3125
 20
12.8272991807
 30
0.0
 10
5.3125
 20
12.8272469184
 30
0.0
 10
5.3125172277
 20
12.8271374307
 30
0.0
 10
5.3125906875
 20
12.8269788331
 30
0.0
 10
5.3127096118
 20
12.8268235055
 30
0.0
 10
5.312943325
 20
12.8266072628
 30
0.0
 10
5.3133567145
 20
12.8263582181
 30
0.0
 10
5.3139834842
 20
12.8261038731
 30
0.0
 10
5.3147601363
 20
12.8258879853
 30
0.0
 10
5.3156643499
 20
12.8257213959
 30
0.0
 10
5.3166617484
 20
12.8256175866
 30
0.0
 10
5.3173547643
 20
12.8255932112
 30
0.0
 10
5.3177083333
 20
12.8255932112
 30
0.0
  0
SPLINE
  5
2DD
100
AcDbEntity
  8
LAYER_CUT_FEAT
100
AcDbSpline
 62
7
  6
BYLAYER
 70
0
 71
3
 72
17
 73
13
 74
0
 42
0.0000001
 43
0.0000001
 44
0.0000000001
 40
0.0
 40
0.0
 40
0.0
 40
0.0
 40
0.1838036745
 40
0.3601538387
 40
0.5208349602
 40
0.6612408589
 40
0.7784107092
 40
0.8717638275
 40
0.9100059967
 40
0.9433479287
 40
0.9728308507
 40
1.0
 40
1.0
 40
1.0
 40
1.0
 10
5.4322916667
 20
12.8255932112
 30
0.0
 10
5.4326452353
 20
12.8255932112
 30
0.0
 10
5.4333382439
 20
12.8256175861
 30
0.0
 10
5.4343356222
 20
12.8257213937
 30
0.0
 10
5.4352398051
 20
12.8258879666
 30
0.0
 10
5.4360164384
 20
12.82610385
 30
0.0
 10
5.4366432173
 20
12.8263581866
 30
0.0
 10
5.4370566344
 20
12.8266072341
 30
0.0
 10
5.4372903649
 20
12.8268234898
 30
0.0
 10
5.4374093002
 20
12.8269788239
 30
0.0
 10
5.4374827689
 20
12.8271374262
 30
0.0
 10
5.4375
 20
12.8272469176
 30
0.0
 10
5.4375
 20
12.8272991807
 30
0.0
  0
SPLINE
  5
2DE
100
AcDbEntity
  8
LAYER_CUT_FEAT
100
AcDbSpline
 62
7
  6
BYLAYER
 70
0
 71
3
 72
14
 73
10
 74
0
 42
0.0000001
 43
0.0000001
 44
0.0000000001
 40
0.0
 40
0.0
 40
0.0
 40
0.0
 40
0.1556800743
 40
0.3208934896
 40
0.4861069091
 40
0.6513207012
 40
0.8165354365
 40
0.9817517436
 40
1.0
 40
1.0
 40
1.0
 40
1.0
 10
16.5222010761
 20
4.8977338535
 30
0.0
 10
16.5217699031
 20
4.8996976785
 30
0.0
 10
16.5208300845
 20
4.903734608
 30
0.0
 10
16.5192093574
 20
4.9098008647
 30
0.0
 10
16.5173638818
 20
4.9159311646
 30
0.0
 10
16.5153271632
 20
4.9220006589
 30
0.0
 10
16.5131081488
 20
4.9280056941
 30
0.0
 10
16.5114423772
 20
4.9321897617
 30
0.0
 10
16.5105382531
 20
4.9343799326
 30
0.0
 10
16.5104480544
 20
4.9345976655
 30
0.0
  0
SPLINE
  5
2DF
100
AcDbEntity
  8
LAYER_CUT_FEAT
100
AcDbSpline
 62
7
  6
BYLAYER
 70
0
 71
3
 72
14
 73
10
 74
0
 42
0.0000001
 43
0.0000001
 44
0.0000000001
 40
0.0
 40
0.0
 40
0.0
 40
0.0
 40
0.0182482564
 40
0.1834645635
 40
0.3486792988
 40
0.5138930909
 40
0.6791065104
 40
0.8443199257
 40
1.0
 40
1.0
 40
1.0
 40
1.0
 10
16.5564706924
 20
4.9323367183
 30
0.0
 10
16.5563595864
 20
4.9321288749
 30
0.0
 10
16.5552451417
 20
4.9300378699
 30
0.0
 10
16.5531772809
 20
4.9260372239
 30
0.0
 10
16.5503803553
 20
4.920278606
 30
0.0
 10
16.5477585296
 20
4.9144379713
 30
0.0
 10
16.5453210659
 20
4.9085180787
 30
0.0
 10
16.5431135459
 20
4.9026398918
 30
0.0
 10
16.5417825646
 20
4.8987145195
 30
0.0
 10
16.5411609793
 20
4.8968024132
 30
0.0
  0
SPLINE
  5
2E0
100
AcDbEntity
  8
LAYER_CUT_FEAT
100
AcDbSpline
 62
7
  6
BYLAYER
 70
0
 71
3
 72
14
 73
10
 74
0
 42
0.0000001
 43
0.0000001
 44
0.0000000001
 40
0.0
 40
0.0
 40
0.0
 40
0.0
 40
0.1556800743
 40
0.3208934896
 40
0.4861069091
 40
0.6513207012
 40
0.8165354365
 40
0.9817517436
 40
1.0
 40
1.0
 40
1.0
 40
1.0
 10
16.585349323
 20
4.8924502412
 30
0.0
 10
16.5851127147
 20
4.8944468722
 30
0.0
 10
16.5845731099
 20
4.8985564811
 30
0.0
 10
16.5835547842
 20
4.9047523862
 30
0.0
 10
16.5823190695
 20
4.9110340552
 30
0.0
 10
16.5808870727
 20
4.9172739566
 30
0.0
 10
16.5792673399
 20
4.9234675773
 30
0.0
 10
16.5780196997
 20
4.9277947717
 30
0.0
 10
16.5773346036
 20
4.930063016
 30
0.0
 10
16.5772661807
 20
4.9302885415
 30
0.0
  0
SPLINE
  5
2E1
100
AcDbEntity
  8
LAYER_CUT_FEAT
100
AcDbSpline
 62
7
  6
BYLAYER
 70
0
 71
3
 72
14
 73
10
 74
0
 42
0.0000001
 43
0.0000001
 44
0.0000000001
 40
0.0
 40
0.0
 40
0.0
 40
0.0
 40
0.0182482564
 40
0.1834645635
 40
0.3486792988
 40
0.5138930909
 40
0.6791065104
 40
0.8443199257
 40
1.0
 40
1.0
 40
1.0
 40
1.0
 10
16.4895519456
 20
4.9345976655
 30
0.0
 10
16.4894617469
 20
4.9343799326
 30
0.0
 10
16.4885576228
 20
4.9321897617
 30
0.0
 10
16.4868918512
 20
4.9280056941
 30
0.0
 10
16.4846728368
 20
4.9220006589
 30
0.0
 10
16.4826361182
 20
4.9159311646
 30
0.0
 10
16.4807906426
 20
4.9098008647
 30
0.0
 10
16.4791699155
 20
4.903734608
 30
0.0
 10
16.4782300969
 20
4.8996976785
 30
0.0
 10
16.4777989239
 20
4.8977338535
 30
0.0
  0
SPLINE
  5
2E2
100
AcDbEntity
  8
LAYER_CUT_FEAT
100
AcDbSpline
 62
7
  6
BYLAYER
 70
0
 71
3
 72
12
 73
8
 74
0
 42
0.0000001
 43
0.0000001
 44
0.0000000001
 40
0.0
 40
0.0
 40
0.0
 40
0.0
 40
0.5121859164
 40
0.6366561365
 40
0.7594970615
 40
0.880615313
 40
1.0
 40
1.0
 40
1.0
 40
1.0
 10
16.1943012495
 20
13.1659183296
 30
0.0
 10
16.1955007016
 20
13.1603762168
 30
0.0
 10
16.1970994801
 20
13.1535084364
 30
0.0
 10
16.1992688202
 20
13.1453845179
 30
0.0
 10
16.2003711809
 20
13.1414572834
 30
0.0
 10
16.2015109397
 20
13.1375994073
 30
0.0
 10
16.2023013814
 20
13.1350567318
 30
0.0
 10
16.2027012448
 20
13.1337969584
 30
0.0
  0
SPLINE
  5
2E3
100
AcDbEntity
  8
LAYER_FEATURE
100
AcDbSpline
 62
7
  6
BYLAYER
 70
0
 71
3
 72
15
 73
11
 74
0
 42
0.0000001
 43
0.0000001
 44
0.0000000001
 40
0.0
 40
0.0
 40
0.0
 40
0.0
 40
0.1130754378
 40
0.2353493732
 40
0.3638873487
 40
0.4958379557
 40
0.6283363666
 40
0.7584958763
 40
0.8834063717
 40
1.0
 40
1.0
 40
1.0
 40
1.0
 10
16.2027012448
 20
13.1337969584
 30
0.0
 10
16.2028152786
 20
13.1334376939
 30
0.0
 10
16.2030151107
 20
13.1326778191
 30
0.0
 10
16.2032310895
 20
13.1314831977
 30
0.0
 10
16.2033686705
 20
13.1302137197
 30
0.0
 10
16.2034253165
 20
13.1289040761
 30
0.0
 10
16.2033988136
 20
13.1275880774
 30
0.0
 10
16.2032905588
 20
13.1262997255
 30
0.0
 10
16.203102292
 20
13.1250742439
 30
0.0
 10
16.2029209624
 20
13.1242887878
 30
0.0
 10
16.202815989
 20
13.1239145769
 30
0.0
  0
SPLINE
  5
2E4
100
AcDbEntity
  8
LAYER_CUT_FEAT
100
AcDbSpline
 62
7
  6
BYLAYER
 70
0
 71
3
 72
12
 73
8
 74
0
 42
0.0000001
 43
0.0000001
 44
0.0000000001
 40
0.0
 40
0.0
 40
0.0
 40
0.0
 40
0.5096200087
 40
0.63423274
 40
0.7575485349
 40
0.8794896731
 40
1.0
 40
1.0
 40
1.0
 40
1.0
 10
16.2111897081
 20
13.2169321574
 30
0.0
 10
16.2121472883
 20
13.2112602733
 30
0.0
 10
16.2134385953
 20
13.2042166303
 30
0.0
 10
16.2152171056
 20
13.195852961
 30
0.0
 10
16.2161310663
 20
13.1917793661
 30
0.0
 10
16.2170818647
 20
13.1877617777
 30
0.0
 10
16.2177453238
 20
13.1851067603
 30
0.0
 10
16.2180822065
 20
13.1837889217
 30
0.0
  0
SPLINE
  5
2E5
100
AcDbEntity
  8
LAYER_CUT_FEAT
100
AcDbSpline
 62
7
  6
BYLAYER
 70
0
 71
3
 72
15
 73
11
 74
0
 42
0.0000001
 43
0.0000001
 44
0.0000000001
 40
0.0
 40
0.0
 40
0.0
 40
0.0
 40
0.1363288528
 40
0.2692095687
 40
0.398632102
 40
0.5247518532
 40
0.6476778876
 40
0.767605763
 40
0.8849277637
 40
1.0
 40
1.0
 40
1.0
 40
1.0
 10
16.3285821348
 20
13.1685783591
 30
0.0
 10
16.3280237878
 20
13.1692792354
 30
0.0
 10
16.3269043153
 20
13.1706499893
 30
0.0
 10
16.3251828037
 20
13.1726259403
 30
0.0
 10
16.3234419388
 20
13.1744941508
 30
0.0
 10
16.3216848627
 20
13.1762558826
 30
0.0
 10
16.3199113964
 20
13.1779109984
 30
0.0
 10
16.3181216546
 20
13.1794614961
 30
0.0
 10
16.3163201517
 20
13.1809173131
 30
0.0
 10
16.315102152
 20
13.1818396499
 30
0.0
 10
16.314492118
 20
13.1822868139
 30
0.0
  0
SPLINE
  5
2E6
100
AcDbEntity
  8
LAYER_CUT_FEAT
100
AcDbSpline
 62
7
  6
BYLAYER
 70
0
 71
3
 72
14
 73
10
 74
0
 42
0.0000001
 43
0.0000001
 44
0.0000000001
 40
0.0
 40
0.0
 40
0.0
 40
0.0
 40
0.1358653851
 40
0.2685146784
 40
0.3978959279
 40
0.5241101399
 40
0.6472125169
 40
0.7673416445
 40
1.0
 40
1.0
 40
1.0
 40
1.0
 10
16.3454799217
 20
13.2147597341
 30
0.0
 10
16.344950579
 20
13.2155984639
 30
0.0
 10
16.3438878854
 20
13.217245763
 30
0.0
 10
16.342250272
 20
13.2196451177
 30
0.0
 10
16.3405893857
 20
13.2219420358
 30
0.0
 10
16.3389083209
 20
13.2241370704
 30
0.0
 10
16.3372069534
 20
13.2262301543
 30
0.0
 10
16.3349357425
 20
13.2288592942
 30
0.0
 10
16.3331732873
 20
13.2307391336
 30
0.0
 10
16.3319809994
 20
13.2319486558
 30
0.0
  0
SPLINE
  5
2E7
100
AcDbEntity
  8
LAYER_FEATURE
100
AcDbSpline
 62
7
  6
BYLAYER
 70
0
 71
3
 72
23
 73
19
 74
0
 42
0.0000001
 43
0.0000001
 44
0.0000000001
 40
0.0
 40
0.0
 40
0.0
 40
0.0
 40
0.0845681915
 40
0.1659578347
 40
0.2440941801
 40
0.318957605
 40
0.3905582484
 40
0.458928825
 40
0.5241332183
 40
0.5862668048
 40
0.6454628549
 40
0.7019088306
 40
0.7558425459
 40
0.8075543152
 40
0.8573961522
 40
0.9057746018
 40
0.9531443435
 40
1.0
 40
1.0
 40
1.0
 40
1.0
 10
16.2421639229
 20
13.2342477929
 30
0.0
 10
16.2449103558
 20
13.2403352879
 30
0.0
 10
16.2504977995
 20
13.2521936879
 30
0.0
 10
16.2593419014
 20
13.2693261357
 30
0.0
 10
16.2684749275
 20
13.2854317866
 30
0.0
 10
16.2778772889
 20
13.3004781749
 30
0.0
 10
16.2875309605
 20
13.314437497
 30
0.0
 10
16.2974192742
 20
13.3272827075
 30
0.0
 10
16.3075226709
 20
13.3389897779
 30
0.0
 10
16.3178218419
 20
13.3495358831
 30
0.0
 10
16.3282992782
 20
13.3588980307
 30
0.0
 10
16.3389347508
 20
13.3670578888
 30
0.0
 10
16.3497085518
 20
13.373998962
 30
0.0
 10
16.3606022175
 20
13.3797033557
 30
0.0
 10
16.3715939713
 20
13.3841579342
 30
0.0
 10
16.3826620918
 20
13.3873513789
 30
0.0
 10
16.3937814559
 20
13.3892710076
 30
0.0
 10
16.4012292915
 20
13.3896989138
 30
0.0
 10
16.4049294881
 20
13.3896991414
 30
0.0
  0
SPLINE
  5
2E8
100
AcDbEntity
  8
LAYER_CUT_FEAT
100
AcDbSpline
 62
7
  6
BYLAYER
 70
0
 71
3
 72
15
 73
11
 74
0
 42
0.0000001
 43
0.0000001
 44
0.0000000001
 40
0.0
 40
0.0
 40
0.0
 40
0.0
 40
0.142468847
 40
0.29129458
 40
0.4389406661
 40
0.579782481
 40
0.709186635
 40
0.8239517204
 40
0.9214588103
 40
1.0
 40
1.0
 40
1.0
 40
1.0
 10
16.307556878
 20
13.1837965557
 30
0.0
 10
16.3078976309
 20
13.1837965557
 30
0.0
 10
16.3085944269
 20
13.183773841
 30
0.0
 10
16.3096409305
 20
13.1836849423
 30
0.0
 10
16.3106776244
 20
13.1835425965
 30
0.0
 10
16.3116600179
 20
13.1833557885
 30
0.0
 10
16.3125538097
 20
13.1831319745
 30
0.0
 10
16.3133322263
 20
13.1828801185
 30
0.0
 10
16.3139733271
 20
13.182608411
 30
0.0
 10
16.3143406098
 20
13.1823978717
 30
0.0
 10
16.314492118
 20
13.1822868139
 30
0.0
  0
SPLINE
  5
2E9
100
AcDbEntity
  8
LAYER_CUT_FEAT
100
AcDbSpline
 62
7
  6
BYLAYER
 70
0
 71
3
 72
15
 73
11
 74
0
 42
0.0000001
 43
0.0000001
 44
0.0000000001
 40
0.0
 40
0.0
 40
0.0
 40
0.0
 40
0.1399559986
 40
0.2861916694
 40
0.4316425266
 40
0.5710589467
 40
0.7001403549
 40
0.8160034227
 40
0.9163878
 40
1.0
 40
1.0
 40
1.0
 40
1.0
 10
16.325113681
 20
13.2339892773
 30
0.0
 10
16.3254541027
 20
13.2339892773
 30
0.0
 10
16.3261503825
 20
13.2339582581
 30
0.0
 10
16.3271940364
 20
13.2338367885
 30
0.0
 10
16.3282253582
 20
13.2336425597
 30
0.0
 10
16.3292004545
 20
13.2333881547
 30
0.0
 10
16.3300855152
 20
13.2330840216
 30
0.0
 10
16.3308544037
 20
13.2327422583
 30
0.0
 10
16.3314856474
 20
13.2323740919
 30
0.0
 10
16.3318382279
 20
13.2320934911
 30
0.0
 10
16.3319809994
 20
13.2319486558
 30
0.0
  0
SPLINE
  5
2EA
100
AcDbEntity
  8
LAYER_CUT_FEAT
100
AcDbSpline
 62
7
  6
BYLAYER
 70
0
 71
3
 72
14
 73
10
 74
0
 42
0.0000001
 43
0.0000001
 44
0.0000000001
 40
0.0
 40
0.0
 40
0.0
 40
0.0
 40
0.286372505
 40
0.4210423055
 40
0.5495734984
 40
0.6717776933
 40
0.787582311
 40
0.8969688744
 40
1.0
 40
1.0
 40
1.0
 40
1.0
 10
16.7093741555
 20
12.8334950164
 30
0.0
 10
16.7105824659
 20
12.8374051106
 30
0.0
 10
16.7125449514
 20
12.8431006699
 30
0.0
 10
16.7155403914
 20
12.8503628086
 30
0.0
 10
16.717857778
 20
12.8553615169
 30
0.0
 10
16.7202837253
 20
12.8600064711
 30
0.0
 10
16.7228097749
 20
12.8642833846
 30
0.0
 10
16.7254281587
 20
12.8681784906
 30
0.0
 10
16.7272853573
 20
12.8705834923
 30
0.0
 10
16.7282290625
 20
12.8717137226
 30
0.0
  0
SPLINE
  5
2EB
100
AcDbEntity
  8
LAYER_AXIS
100
AcDbSpline
 62
7
  6
BYLAYER
 70
0
 71
3
 72
11
 73
7
 74
0
 42
0.0000001
 43
0.0000001
 44
0.0000000001
 40
0.0
 40
0.0
 40
0.0
 40
0.0
 40
0.2804324633
 40
0.5376669485
 40
0.7751616807
 40
1.0
 40
1.0
 40
1.0
 40
1.0
 10
16.606919294
 20
12.5542012726
 30
0.0
 10
16.6073400858
 20
12.5533437891
 30
0.0
 10
16.6080430233
 20
12.5516448222
 30
0.0
 10
16.6086590328
 20
12.5490639143
 30
0.0
 10
16.6087652877
 20
12.5465986536
 30
0.0
 10
16.6084819668
 20
12.5450327384
 30
0.0
 10
16.6082558703
 20
12.544301065
 30
0.0
  0
SPLINE
  5
2EC
100
AcDbEntity
  8
LAYER_AXIS
100
AcDbSpline
 62
7
  6
BYLAYER
 70
0
 71
3
 72
27
 73
23
 74
0
 42
0.0000001
 43
0.0000001
 44
0.0000000001
 40
0.0
 40
0.0
 40
0.0
 40
0.0
 40
0.022847949
 40
0.0460871554
 40
0.0698938741
 40
0.0944221733
 40
0.1197978169
 40
0.1461114227
 40
0.2017338796
 40
0.2615734191
 40
0.325485765
 40
0.3930071741
 40
0.4634289218
 40
0.5358243412
 40
0.6091108292
 40
0.6820965138
 40
0.7535243822
 40
0.822121962
 40
0.8866864209
 40
0.946230916
 40
0.9738813858
 40
1.0
 40
1.0
 40
1.0
 40
1.0
 10
16.5413763466
 20
12.5649684
 30
0.0
 10
16.5415539153
 20
12.5655430292
 30
0.0
 10
16.5419908408
 20
12.5666792965
 30
0.0
 10
16.5428708338
 20
12.5683004223
 30
0.0
 10
16.5439711826
 20
12.569835646
 30
0.0
 10
16.5452839546
 20
12.571270311
 30
0.0
 10
16.546798867
 20
12.5725918632
 30
0.0
 10
16.5491137456
 20
12.5742185046
 30
0.0
 10
16.5524766906
 20
12.5758911587
 30
0.0
 10
16.5570219249
 20
12.5772416443
 30
0.0
 10
16.562028981
 20
12.577921697
 30
0.0
 10
16.5673575681
 20
12.5779081675
 30
0.0
 10
16.5728627684
 20
12.577203334
 30
0.0
 10
16.5783963656
 20
12.5758351213
 30
0.0
 10
16.5838148896
 20
12.5738622557
 30
0.0
 10
16.588980644
 20
12.5713589186
 30
0.0
 10
16.5937656501
 20
12.5684180432
 30
0.0
 10
16.5980538185
 20
12.565143678
 30
0.0
 10
16.6017395543
 20
12.5616436421
 30
0.0
 10
16.6042938149
 20
12.5585551022
 30
0.0
 10
16.6059339
 20
12.5560608064
 30
0.0
 10
16.6066164055
 20
12.5548184944
 30
0.0
 10
16.606919294
 20
12.5542012726
 30
0.0
  0
SPLINE
  5
2ED
100
AcDbEntity
  8
LAYER_FEATURE
100
AcDbSpline
 62
7
  6
BYLAYER
 70
0
 71
3
 72
16
 73
12
 74
0
 42
0.0000001
 43
0.0000001
 44
0.0000000001
 40
0.0
 40
0.0
 40
0.0
 40
0.0
 40
0.1412234784
 40
0.2101138058
 40
0.2777197023
 40
0.4088131448
 40
0.5346578464
 40
0.6557585284
 40
0.7729204811
 40
0.8872129974
 40
1.0
 40
1.0
 40
1.0
 40
1.0
 10
16.5779601515
 20
12.9541205056
 30
0.0
 10
16.5804730259
 20
12.9541205056
 30
0.0
 10
16.5842162367
 20
12.9539287497
 30
0.0
 10
16.5891153676
 20
12.9532666093
 30
0.0
 10
16.5937918893
 20
12.9523597604
 30
0.0
 10
16.5993558577
 20
12.9507550709
 30
0.0
 10
16.6055432276
 20
12.9480651081
 30
0.0
 10
16.6110831906
 20
12.944661963
 30
0.0
 10
16.6158942058
 20
12.9405960908
 30
0.0
 10
16.6198965966
 20
12.93592443
 30
0.0
 10
16.6219883779
 20
12.932441076
 30
0.0
 10
16.6228727956
 20
12.9306395763
 30
0.0
  0
SPLINE
  5
2EE
100
AcDbEntity
  8
LAYER_CUT_FEAT
100
AcDbSpline
 62
7
  6
BYLAYER
 70
0
 71
3
 72
9
 73
5
 74
0
 42
0.0000001
 43
0.0000001
 44
0.0000000001
 40
0.0
 40
0.0
 40
0.0
 40
0.0
 40
0.2612722653
 40
1.0
 40
1.0
 40
1.0
 40
1.0
 10
16.7257495257
 20
12.632043999
 30
0.0
 10
16.7261726819
 20
12.6316666953
 30
0.0
 10
16.7278236494
 20
12.6302587469
 30
0.0
 10
16.7296073575
 20
12.6290019423
 30
0.0
 10
16.7309942101
 20
12.6281980939
 30
0.0
  0
SPLINE
  5
2EF
100
AcDbEntity
  8
LAYER_CUT_FEAT
100
AcDbSpline
 62
7
  6
BYLAYER
 70
0
 71
3
 72
11
 73
7
 74
0
 42
0.0000001
 43
0.0000001
 44
0.0000000001
 40
0.0
 40
0.0
 40
0.0
 40
0.0
 40
0.2634330461
 40
0.5155765079
 40
0.7598293777
 40
1.0
 40
1.0
 40
1.0
 40
1.0
 10
16.7309942101
 20
12.6281980939
 30
0.0
 10
16.7318498197
 20
12.627702165
 30
0.0
 10
16.7335797183
 20
12.6268224179
 30
0.0
 10
16.7362697965
 20
12.6258507643
 30
0.0
 10
16.7389806043
 20
12.6252644559
 30
0.0
 10
16.7408017086
 20
12.6251330455
 30
0.0
 10
16.7417033254
 20
12.625133004
 30
0.0
  0
SPLINE
  5
2F0
100
AcDbEntity
  8
LAYER_FEATURE
100
AcDbSpline
 62
7
  6
BYLAYER
 70
0
 71
3
 72
9
 73
5
 74
0
 42
0.0000001
 43
0.0000001
 44
0.0000000001
 40
0.0
 40
0.0
 40
0.0
 40
0.0
 40
0.2467273152
 40
1.0
 40
1.0
 40
1.0
 40
1.0
 10
16.5779601515
 20
12.9541205056
 30
0.0
 10
16.5772699494
 20
12.9541205056
 30
0.0
 10
16.5744726194
 20
12.954081016
 30
0.0
 10
16.5716778049
 20
12.9538867813
 30
0.0
 10
16.5695828194
 20
12.9536599784
 30
0.0
  0
SPLINE
  5
2F1
100
AcDbEntity
  8
LAYER_FEATURE
100
AcDbSpline
 62
7
  6
BYLAYER
 70
0
 71
3
 72
19
 73
15
 74
0
 42
0.0000001
 43
0.0000001
 44
0.0000000001
 40
0.0
 40
0.0
 40
0.0
 40
0.0
 40
0.1272814032
 40
0.1922029569
 40
0.2576540184
 40
0.3234091165
 40
0.3892218761
 40
0.4548295461
 40
0.519974708
 40
0.5844197763
 40
0.647939481
 40
0.7713215549
 40
0.8889043152
 40
1.0
 40
1.0
 40
1.0
 40
1.0
 10
16.5695828194
 20
12.9536599784
 30
0.0
 10
16.5656342451
 20
12.9532325064
 30
0.0
 10
16.5597089129
 20
12.9521528796
 30
0.0
 10
16.5519809942
 20
12.9499224624
 30
0.0
 10
16.5462207869
 20
12.947840963
 30
0.0
 10
16.5405839986
 20
12.945376623
 30
0.0
 10
16.5351141789
 20
12.9425502339
 30
0.0
 10
16.5298547064
 20
12.9393860259
 30
0.0
 10
16.5248501707
 20
12.935906492
 30
0.0
 10
16.5201397611
 20
12.9321407751
 30
0.0
 10
16.5143588456
 20
12.9268335638
 30
0.0
 10
16.5080486824
 20
12.9196804324
 30
0.0
 10
16.5020991307
 20
12.9103938002
 30
0.0
 10
16.4993094325
 20
12.9037746669
 30
0.0
 10
16.4982859302
 20
12.9004626123
 30
0.0
  0
SPLINE
  5
2F2
100
AcDbEntity
  8
LAYER_FEATURE
100
AcDbSpline
 62
7
  6
BYLAYER
 70
0
 71
3
 72
14
 73
10
 74
0
 42
0.0000001
 43
0.0000001
 44
0.0000000001
 40
0.0
 40
0.0
 40
0.0
 40
0.0
 40
0.2641871548
 40
0.3918569378
 40
0.5168952879
 40
0.6397178497
 40
0.7608119366
 40
0.8807109187
 40
1.0
 40
1.0
 40
1.0
 40
1.0
 10
16.4982859302
 20
12.9004626123
 30
0.0
 10
16.4974813768
 20
12.8978590763
 30
0.0
 10
16.4965887202
 20
12.8938908745
 30
0.0
 10
16.4961200576
 20
12.8885744157
 30
0.0
 10
16.4961374315
 20
12.8846948488
 30
0.0
 10
16.49652071
 20
12.8809025709
 30
0.0
 10
16.4972656737
 20
12.8772181124
 30
0.0
 10
16.4983688921
 20
12.8736629212
 30
0.0
 10
16.4993421801
 20
12.871390157
 30
0.0
 10
16.4998844211
 20
12.8702856483
 30
0.0
  0
SPLINE
  5
2F3
100
AcDbEntity
  8
LAYER_CUT_FEAT
100
AcDbSpline
 62
7
  6
BYLAYER
 70
0
 71
3
 72
26
 73
22
 74
0
 42
0.0000001
 43
0.0000001
 44
0.0000000001
 40
0.0
 40
0.0
 40
0.0
 40
0.0
 40
0.0202779382
 40
0.0417765878
 40
0.0645041394
 40
0.0884555847
 40
0.1136150865
 40
0.1399504571
 40
0.1959656514
 40
0.256093367
 40
0.3197980309
 40
0.3864669558
 40
0.4554222537
 40
0.5259401596
 40
0.597268198
 40
0.6686394626
 40
0.739284459
 40
0.8084394902
 40
0.8753911578
 40
0.9394775357
 40
1.0
 40
1.0
 40
1.0
 40
1.0
 10
16.728230865
 20
12.6283495995
 30
0.0
 10
16.7273127348
 20
12.6294490429
 30
0.0
 10
16.7255051451
 20
12.6317851363
 30
0.0
 10
16.7229522986
 20
12.6355623607
 30
0.0
 10
16.7204862246
 20
12.6397017584
 30
0.0
 10
16.7181148483
 20
12.6441903442
 30
0.0
 10
16.7158462253
 20
12.6490147
 30
0.0
 10
16.7129065417
 20
12.6560189516
 30
0.0
 10
16.709560469
 20
12.6655209779
 30
0.0
 10
16.7061352827
 20
12.6777624004
 30
0.0
 10
16.7032634369
 20
12.6909159968
 30
0.0
 10
16.7009822632
 20
12.704816085
 30
0.0
 10
16.699321499
 20
12.7192878798
 30
0.0
 10
16.6983011492
 20
12.7341484333
 30
0.0
 10
16.6979361764
 20
12.7492100515
 30
0.0
 10
16.6982294662
 20
12.7642821987
 30
0.0
 10
16.6991788978
 20
12.7791736358
 30
0.0
 10
16.7007705825
 20
12.7936963965
 30
0.0
 10
16.7029851997
 20
12.8076691875
 30
0.0
 10
16.7057955206
 20
12.8209117958
 30
0.0
 10
16.7081119214
 20
12.8294104255
 30
0.0
 10
16.7093741555
 20
12.8334950164
 30
0.0
  0
SPLINE
  5
2F4
100
AcDbEntity
  8
LAYER_CUT_FEAT
100
AcDbSpline
 62
7
  6
BYLAYER
 70
0
 71
3
 72
9
 73
5
 74
0
 42
0.0000001
 43
0.0000001
 44
0.0000000001
 40
0.0
 40
0.0
 40
0.0
 40
0.0
 40
0.2613169186
 40
1.0
 40
1.0
 40
1.0
 40
1.0
 10
16.7255290191
 20
12.867823476
 30
0.0
 10
16.7259514496
 20
12.868205994
 30
0.0
 10
16.7275994593
 20
12.8696341008
 30
0.0
 10
16.7293805801
 20
12.870913043
 30
0.0
 10
16.7307664006
 20
12.8717343838
 30
0.0
  0
SPLINE
  5
2F5
100
AcDbEntity
  8
LAYER_CUT_FEAT
100
AcDbSpline
 62
7
  6
BYLAYER
 70
0
 71
3
 72
11
 73
7
 74
0
 42
0.0000001
 43
0.0000001
 44
0.0000000001
 40
0.0
 40
0.0
 40
0.0
 40
0.0
 40
0.263963147
 40
0.516199021
 40
0.76022474
 40
1.0
 40
1.0
 40
1.0
 40
1.0
 10
16.7307664006
 20
12.8717343838
 30
0.0
 10
16.7316388167
 20
12.8722514428
 30
0.0
 10
16.7334032175
 20
12.8731690021
 30
0.0
 10
16.7361508193
 20
12.8741835668
 30
0.0
 10
16.7389206639
 20
12.8747958669
 30
0.0
 10
16.7407821237
 20
12.8749330385
 30
0.0
 10
16.7417033254
 20
12.874932996
 30
0.0
  0
SPLINE
  5
2F6
100
AcDbEntity
  8
LAYER_FEATURE
100
AcDbSpline
 62
7
  6
BYLAYER
 70
0
 71
3
 72
16
 73
12
 74
0
 42
0.0000001
 43
0.0000001
 44
0.0000000001
 40
0.0
 40
0.0
 40
0.0
 40
0.0
 40
0.1088187392
 40
0.2194257377
 40
0.3334966468
 40
0.4525291897
 40
0.5143377126
 40
0.577840549
 40
0.7103478158
 40
0.8508723901
 40
1.0
 40
1.0
 40
1.0
 40
1.0
 10
16.7417033254
 20
13.000032833
 30
0.0
 10
16.74347752
 20
13.0000330439
 30
0.0
 10
16.7470600075
 20
12.9997798377
 30
0.0
 10
16.752394105
 20
12.9986459707
 30
0.0
 10
16.7576892479
 20
12.9967658842
 30
0.0
 10
16.7620005922
 20
12.994610925
 30
0.0
 10
16.7654065426
 20
12.9925415756
 30
0.0
 10
16.7688806439
 20
12.9901720059
 30
0.0
 10
16.773174057
 20
12.9867410183
 30
0.0
 10
16.7781557579
 20
12.981980872
 30
0.0
 10
16.7813062063
 20
12.9784558991
 30
0.0
 10
16.7828641201
 20
12.9765891937
 30
0.0
  0
SPLINE
  5
2F7
100
AcDbEntity
  8
LAYER_FEATURE
100
AcDbSpline
 62
7
  6
BYLAYER
 70
0
 71
3
 72
44
 73
40
 74
0
 42
0.0000001
 43
0.0000001
 44
0.0000000001
 40
0.0
 40
0.0
 40
0.0
 40
0.0
 40
0.0077027366
 40
0.0154558584
 40
0.0233085119
 40
0.0313074916
 40
0.0394966178
 40
0.0479159788
 40
0.0655730604
 40
0.0845243448
 40
0.0945433376
 40
0.104943251
 40
0.1269268614
 40
0.1385306735
 40
0.150546399
 40
0.175815805
 40
0.2027281203
 40
0.2312469909
 40
0.2613129687
 40
0.292849479
 40
0.3257632253
 40
0.3599489027
 40
0.3952888152
 40
0.4316567497
 40
0.4689174263
 40
0.5069296729
 40
0.5455460856
 40
0.5846155263
 40
0.6239833015
 40
0.6634928819
 40
0.7029866015
 40
0.742306785
 40
0.7812977554
 40
0.8198053779
 40
0.8576779985
 40
0.8947683254
 40
0.9309424351
 40
0.9660683739
 40
1.0
 40
1.0
 40
1.0
 40
1.0
 10
16.404943411
 20
12.1103665882
 30
0.0
 10
16.4020933469
 20
12.1103661504
 30
0.0
 10
16.3963713553
 20
12.1106180877
 30
0.0
 10
16.3878116622
 20
12.1117534369
 30
0.0
 10
16.3792738048
 20
12.1136432939
 30
0.0
 10
16.3707694148
 20
12.1162842974
 30
0.0
 10
16.3623085299
 20
12.1196732493
 30
0.0
 10
16.3509210873
 20
12.1252709131
 30
0.0
 10
16.3368085161
 20
12.1342290814
 30
0.0
 10
16.3234768533
 20
12.1452407757
 30
0.0
 10
16.3130103053
 20
12.1553798328
 30
0.0
 10
16.3022972986
 20
12.166849894
 30
0.0
 10
16.2920415218
 20
12.1795188113
 30
0.0
 10
16.2822130706
 20
12.1932373996
 30
0.0
 10
16.2722324219
 20
12.2083288624
 30
0.0
 10
16.2601900578
 20
12.228825106
 30
0.0
 10
16.2466513745
 20
12.2554566709
 30
0.0
 10
16.2338548145
 20
12.2844026935
 30
0.0
 10
16.2218576066
 20
12.3155277154
 30
0.0
 10
16.2107176012
 20
12.3486883617
 30
0.0
 10
16.2004848103
 20
12.3837297342
 30
0.0
 10
16.1912094546
 20
12.4204888159
 30
0.0
 10
16.1829330167
 20
12.458793432
 30
0.0
 10
16.1756967193
 20
12.498464596
 30
0.0
 10
16.1695324895
 20
12.5393161986
 30
0.0
 10
16.1644716782
 20
12.5811568987
 30
0.0
 10
16.1605359202
 20
12.6237902549
 30
0.0
 10
16.1577460986
 20
12.6670163246
 30
0.0
 10
16.1561130823
 20
12.7106321261
 30
0.0
 10
16.1556469641
 20
12.7544329374
 30
0.0
 10
16.1563475031
 20
12.7982130216
 30
0.0
 10
16.1582137991
 20
12.8417669211
 30
0.0
 10
16.1612346754
 20
12.8848903842
 30
0.0
 10
16.1653984959
 20
12.9273805874
 30
0.0
 10
16.1706824799
 20
12.969037577
 30
0.0
 10
16.1770643282
 20
13.009667112
 30
0.0
 10
16.1845127836
 20
13.0490815599
 30
0.0
 10
16.1929943016
 20
13.0870900776
 30
0.0
 10
16.1994249822
 20
13.1118262636
 30
0.0
 10
16.202815989
 20
13.1239145769
 30
0.0
  0
SPLINE
  5
2F8
100
AcDbEntity
  8
LAYER_FEATURE
100
AcDbSpline
 62
7
  6
BYLAYER
 70
0
 71
3
 72
32
 73
28
 74
0
 42
0.0000001
 43
0.0000001
 44
0.0000000001
 40
0.0
 40
0.0
 40
0.0
 40
0.0
 40
0.0189283606
 40
0.0379975273
 40
0.0573444105
 40
0.0770991451
 40
0.0973811069
 40
0.118297979
 40
0.1623803677
 40
0.1857235352
 40
0.2100062659
 40
0.2352760492
 40
0.2615687477
 40
0.2889104014
 40
0.3173201056
 40
0.3468102449
 40
0.3773844259
 40
0.4090406803
 40
0.4417731208
 40
0.4755707691
 40
0.5104164875
 40
0.5831635841
 40
0.6598221298
 40
0.7401413559
 40
0.8238319533
 40
0.9105693074
 40
1.0
 40
1.0
 40
1.0
 40
1.0
 10
16.5200760353
 20
12.1103665882
 30
0.0
 10
16.5231159822
 20
12.110367055
 30
0.0
 10
16.5292222708
 20
12.1106557895
 30
0.0
 10
16.5383533017
 20
12.1119490845
 30
0.0
 10
16.5474576119
 20
12.1141011568
 30
0.0
 10
16.5565203726
 20
12.1171090179
 30
0.0
 10
16.5655300642
 20
12.1209659341
 30
0.0
 10
16.5776654048
 20
12.1273412385
 30
0.0
 10
16.5894437751
 20
12.1353486839
 30
0.0
 10
16.6007958248
 20
12.1447410125
 30
0.0
 10
16.6093644407
 20
12.1527289365
 30
0.0
 10
16.6178101184
 20
12.1615139614
 30
0.0
 10
16.6261236663
 20
12.1710846245
 30
0.0
 10
16.6342945342
 20
12.1814273859
 30
0.0
 10
16.6423120324
 20
12.1925289366
 30
0.0
 10
16.6501649385
 20
12.2043751409
 30
0.0
 10
16.657843769
 20
12.2169496491
 30
0.0
 10
16.6653385976
 20
12.2302356008
 30
0.0
 10
16.6726390426
 20
12.2442157878
 30
0.0
 10
16.6797351779
 20
12.2588719016
 30
0.0
 10
16.689046265
 20
12.2795856483
 30
0.0
 10
16.7000751225
 20
12.3070601142
 30
0.0
 10
16.7121688613
 20
12.3419290037
 30
0.0
 10
16.7232421853
 20
12.3789725578
 30
0.0
 10
16.7332352731
 20
12.41799383
 30
0.0
 10
16.7420945961
 20
12.4587853297
 30
0.0
 10
16.7471437164
 20
12.4866305542
 30
0.0
 10
16.7494785875
 20
12.5008023172
 30
0.0
  0
SPLINE
  5
2F9
100
AcDbEntity
  8
LAYER_FEATURE
100
AcDbSpline
 62
7
  6
BYLAYER
 70
0
 71
3
 72
31
 73
27
 74
0
 42
0.0000001
 43
0.0000001
 44
0.0000000001
 40
0.0
 40
0.0
 40
0.0
 40
0.0
 40
0.0894321503
 40
0.1761717904
 40
0.2598642502
 40
0.3401866404
 40
0.4168466046
 40
0.4895969194
 40
0.5582337419
 40
0.590967541
 40
0.6226247906
 40
0.6531984529
 40
0.6826883467
 40
0.7110989727
 40
0.7384403898
 40
0.764731769
 40
0.7900009793
 40
0.8376045305
 40
0.8600638023
 40
0.8817105473
 40
0.902626396
 40
0.9229064351
 40
0.9426594411
 40
0.962005147
 40
0.981072935
 40
1.0
 40
1.0
 40
1.0
 40
1.0
 10
16.7494986803
 20
12.9991413028
 30
0.0
 10
16.7471646617
 20
13.0133175879
 30
0.0
 10
16.7421162423
 20
13.0411717462
 30
0.0
 10
16.733258166
 20
13.0819765856
 30
0.0
 10
16.7232648296
 20
13.1210109003
 30
0.0
 10
16.7121920428
 20
13.1580669711
 30
0.0
 10
16.7000962124
 20
13.1929483755
 30
0.0
 10
16.6870449149
 20
13.2254704166
 30
0.0
 10
16.6752471424
 20
13.2508516565
 30
0.0
 10
16.6653557538
 20
13.269798985
 30
0.0
 10
16.6578599297
 20
13.2830897876
 30
0.0
 10
16.6501793025
 20
13.2956681527
 30
0.0
 10
16.6423246067
 20
13.3075180264
 30
0.0
 10
16.6343061407
 20
13.3186238318
 30
0.0
 10
16.6261337855
 20
13.3289698599
 30
0.0
 10
16.6178175773
 20
13.3385434118
 30
0.0
 10
16.6067745647
 20
13.350030862
 30
0.0
 10
16.5952779642
 20
13.3602144
 30
0.0
 10
16.5833408616
 20
13.3688657436
 30
0.0
 10
16.5744722731
 20
13.3744021724
 30
0.0
 10
16.5655265723
 20
13.379102656
 30
0.0
 10
16.5565147564
 20
13.3829590954
 30
0.0
 10
16.5474496968
 20
13.385966322
 30
0.0
 10
16.5383435784
 20
13.3881191631
 30
0.0
 10
16.5292103969
 20
13.3894120397
 30
0.0
 10
16.5231027167
 20
13.3896993285
 30
0.0
 10
16.5200621123
 20
13.3896991414
 30
0.0
  0
SPLINE
  5
2FA
100
AcDbEntity
  8
LAYER_FEATURE
100
AcDbSpline
 62
7
  6
BYLAYER
 70
0
 71
3
 72
11
 73
7
 74
0
 42
0.0000001
 43
0.0000001
 44
0.0000000001
 40
0.0
 40
0.0
 40
0.0
 40
0.0
 40
0.2174060045
 40
0.4498978162
 40
0.7085903576
 40
1.0
 40
1.0
 40
1.0
 40
1.0
 10
16.3299726427
 20
13.1677529868
 30
0.0
 10
16.3298516445
 20
13.1677528379
 30
0.0
 10
16.3295998623
 20
13.1677905639
 30
0.0
 10
16.3292377598
 20
13.1679568071
 30
0.0
 10
16.3288902755
 20
13.1682240523
 30
0.0
 10
16.3286831912
 20
13.168451506
 30
0.0
 10
16.3285821348
 20
13.1685783591
 30
0.0
  0
SPLINE
  5
2FB
100
AcDbEntity
  8
LAYER_FEATURE
100
AcDbSpline
 62
7
  6
BYLAYER
 70
0
 71
3
 72
29
 73
25
 74
0
 42
0.0000001
 43
0.0000001
 44
0.0000000001
 40
0.0
 40
0.0
 40
0.0
 40
0.0
 40
0.0202823856
 40
0.0417822292
 40
0.0645126174
 40
0.0884687734
 40
0.1136295486
 40
0.1399655363
 40
0.1674378007
 40
0.1959946786
 40
0.2561225511
 40
0.2875682207
 40
0.3198335025
 40
0.3865013807
 40
0.4554533785
 40
0.5259683658
 40
0.5972916801
 40
0.6686574406
 40
0.7392970207
 40
0.8084493665
 40
0.8753928944
 40
0.939469868
 40
0.9702233557
 40
1.0
 40
1.0
 40
1.0
 40
1.0
 10
16.7899584049
 20
12.968089898
 30
0.0
 10
16.791603293
 20
12.9661184619
 30
0.0
 10
16.7948416878
 20
12.9619303761
 30
0.0
 10
16.7994168394
 20
12.9551601219
 30
0.0
 10
16.803835239
 20
12.947740018
 30
0.0
 10
16.8080830252
 20
12.9396937965
 30
0.0
 10
16.8121483549
 20
12.9310471791
 30
0.0
 10
16.8160176786
 20
12.9218268364
 30
0.0
 10
16.819678154
 20
12.9120613322
 30
0.0
 10
16.8243468134
 20
12.8981153758
 30
0.0
 10
16.8284464788
 20
12.8834589844
 30
0.0
 10
16.8320192549
 20
12.8681935493
 30
0.0
 10
16.8353365494
 20
12.8520238062
 30
0.0
 10
16.8387774174
 20
12.8310417584
 30
0.0
 10
16.841753667
 20
12.8051082983
 30
0.0
 10
16.8435797271
 20
12.77847798
 30
0.0
 10
16.8442336099
 20
12.7514879414
 30
0.0
 10
16.8437071158
 20
12.7244792778
 30
0.0
 10
16.8420049195
 20
12.6977943488
 30
0.0
 10
16.8391523223
 20
12.6717701439
 30
0.0
 10
16.8351831925
 20
12.6467330742
 30
0.0
 10
16.8309305059
 20
12.626689011
 30
0.0
 10
16.8269878005
 20
12.6114138377
 30
0.0
 10
16.8248472573
 20
12.6040548047
 30
0.0
 10
16.8237343513
 20
12.6004534393
 30
0.0
  0
SPLINE
  5
2FC
100
AcDbEntity
  8
LAYER_FEATURE
100
AcDbSpline
 62
7
  6
BYLAYER
 70
0
 71
3
 72
11
 73
7
 74
0
 42
0.0000001
 43
0.0000001
 44
0.0000000001
 40
0.0
 40
0.0
 40
0.0
 40
0.0
 40
0.2070338542
 40
0.4345884008
 40
0.6968713844
 40
1.0
 40
1.0
 40
1.0
 40
1.0
 10
16.3471398889
 20
13.2135494977
 30
0.0
 10
16.3469924405
 20
13.2135497149
 30
0.0
 10
16.3466809334
 20
13.2136081459
 30
0.0
 10
16.346243522
 20
13.2138563472
 30
0.0
 10
16.3458326391
 20
13.2142496735
 30
0.0
 10
16.3455951444
 20
13.2145771667
 30
0.0
 10
16.3454799217
 20
13.2147597341
 30
0.0
  0
SPLINE
  5
2FD
100
AcDbEntity
  8
LAYER_CUT_FEAT
100
AcDbSpline
 62
7
  6
BYLAYER
 70
0
 71
3
 72
9
 73
5
 74
0
 42
0.0000001
 43
0.0000001
 44
0.0000000001
 40
0.0
 40
0.0
 40
0.0
 40
0.0
 40
0.4902123526
 40
1.0
 40
1.0
 40
1.0
 40
1.0
 10
16.1943644791
 20
13.1682643951
 30
0.0
 10
16.1942532491
 20
13.1678942004
 30
0.0
 10
16.1941351736
 20
13.1671036747
 30
0.0
 10
16.1942162197
 20
13.1663112131
 30
0.0
 10
16.1943012495
 20
13.1659183296
 30
0.0
  0
SPLINE
  5
2FE
100
AcDbEntity
  8
LAYER_CUT_FEAT
100
AcDbSpline
 62
7
  6
BYLAYER
 70
0
 71
3
 72
15
 73
11
 74
0
 42
0.0000001
 43
0.0000001
 44
0.0000000001
 40
0.0
 40
0.0
 40
0.0
 40
0.0
 40
0.0578312579
 40
0.1298825249
 40
0.2217050837
 40
0.3355148182
 40
0.4717268078
 40
0.6299302642
 40
0.8073716012
 40
1.0
 40
1.0
 40
1.0
 40
1.0
 10
16.1989247205
 20
13.1830218346
 30
0.0
 10
16.1989440116
 20
13.1830825343
 30
0.0
 10
16.1990241858
 20
13.1832071701
 30
0.0
 10
16.1992214174
 20
13.1833554944
 30
0.0
 10
16.1995000349
 20
13.1834849994
 30
0.0
 10
16.1998609158
 20
13.183595035
 30
0.0
 10
16.2003021427
 20
13.1836840225
 30
0.0
 10
16.2008181484
 20
13.1837486474
 30
0.0
 10
16.2013988503
 20
13.1837881208
 30
0.0
 10
16.2018064915
 20
13.1837965557
 30
0.0
 10
16.2020186391
 20
13.1837965557
 30
0.0
  0
SPLINE
  5
2FF
100
AcDbEntity
  8
LAYER_CUT_FEAT
100
AcDbSpline
 62
7
  6
BYLAYER
 70
0
 71
3
 72
9
 73
5
 74
0
 42
0.0000001
 43
0.0000001
 44
0.0000000001
 40
0.0
 40
0.0
 40
0.0
 40
0.0
 40
0.49148741
 40
1.0
 40
1.0
 40
1.0
 40
1.0
 10
16.211401344
 20
13.2195568468
 30
0.0
 10
16.2112515422
 20
13.2191484416
 30
0.0
 10
16.2110687108
 20
13.2182695217
 30
0.0
 10
16.2111147816
 20
13.2173759576
 30
0.0
 10
16.2111897081
 20
13.2169321574
 30
0.0
  0
SPLINE
  5
300
100
AcDbEntity
  8
LAYER_CUT_FEAT
100
AcDbSpline
 62
7
  6
BYLAYER
 70
0
 71
3
 72
14
 73
10
 74
0
 42
0.0000001
 43
0.0000001
 44
0.0000000001
 40
0.0
 40
0.0
 40
0.0
 40
0.0
 40
0.0715788718
 40
0.153895209
 40
0.2514613915
 40
0.3664990899
 40
0.4998715306
 40
0.6515745927
 40
1.0
 40
1.0
 40
1.0
 40
1.0
 10
16.2164686723
 20
13.2330046353
 30
0.0
 10
16.2164979673
 20
13.2330802591
 30
0.0
 10
16.216591325
 20
13.2332317298
 30
0.0
 10
16.2168056707
 20
13.2334234237
 30
0.0
 10
16.2170971387
 20
13.2335904295
 30
0.0
 10
16.2174638428
 20
13.2337319724
 30
0.0
 10
16.2179035021
 20
13.2338457683
 30
0.0
 10
16.218612669
 20
13.233960825
 30
0.0
 10
16.2191806724
 20
13.2339892773
 30
0.0
 10
16.2195754421
 20
13.2339892773
 30
0.0
  0
SPLINE
  5
301
100
AcDbEntity
  8
LAYER_FEATURE
100
AcDbSpline
 62
7
  6
BYLAYER
 70
0
 71
3
 72
16
 73
12
 74
0
 42
0.0000001
 43
0.0000001
 44
0.0000000001
 40
0.0
 40
0.0
 40
0.0
 40
0.0
 40
0.1088184672
 40
0.2194214119
 40
0.3334884346
 40
0.4525249687
 40
0.5143314334
 40
0.5778296008
 40
0.7103293073
 40
0.8508661279
 40
1.0
 40
1.0
 40
1.0
 40
1.0
 10
16.7417033254
 20
12.500033167
 30
0.0
 10
16.7434775291
 20
12.500033378
 30
0.0
 10
16.7470598752
 20
12.5002869937
 30
0.0
 10
16.7523941009
 20
12.5014196604
 30
0.0
 10
16.7576894251
 20
12.5032994536
 30
0.0
 10
16.7620002092
 20
12.5054555178
 30
0.0
 10
16.7654062748
 20
12.5075246173
 30
0.0
 10
16.7688804861
 20
12.5098936635
 30
0.0
 10
16.773174394
 20
12.5133241575
 30
0.0
 10
16.7781553511
 20
12.5180854569
 30
0.0
 10
16.7813059112
 20
12.5216107334
 30
0.0
 10
16.7828640037
 20
12.5234774467
 30
0.0
  0
SPLINE
  5
302
100
AcDbEntity
  8
LAYER_FEATURE
100
AcDbSpline
 62
7
  6
BYLAYER
 70
0
 71
3
 72
15
 73
11
 74
0
 42
0.0000001
 43
0.0000001
 44
0.0000000001
 40
0.0
 40
0.0
 40
0.0
 40
0.0
 40
0.1030386542
 40
0.212425548
 40
0.3282266062
 40
0.450418953
 40
0.5789248629
 40
0.7135762251
 40
0.8540553813
 40
1.0
 40
1.0
 40
1.0
 40
1.0
 10
16.7899501087
 20
12.5319669106
 30
0.0
 10
16.7916409972
 20
12.5339927457
 30
0.0
 10
16.7949685518
 20
12.5383031972
 30
0.0
 10
16.7996606812
 20
12.5452834178
 30
0.0
 10
16.8041865939
 20
12.5529477073
 30
0.0
 10
16.8085330053
 20
12.561270839
 30
0.0
 10
16.8126852033
 20
12.5702270943
 30
0.0
 10
16.8166280905
 20
12.5797856377
 30
0.0
 10
16.8203491746
 20
12.5899093768
 30
0.0
 10
16.8226308429
 20
12.596882485
 30
0.0
 10
16.8237343513
 20
12.6004534393
 30
0.0
  0
SPLINE
  5
303
100
AcDbEntity
  8
LAYER_FEATURE
100
AcDbSpline
 62
7
  6
BYLAYER
 70
0
 71
3
 72
15
 73
11
 74
0
 42
0.0000001
 43
0.0000001
 44
0.0000000001
 40
0.0
 40
0.0
 40
0.0
 40
0.0
 40
0.1188867311
 40
0.2455056971
 40
0.3767082839
 40
0.5095507393
 40
0.6411359758
 40
0.7686172195
 40
0.8891858019
 40
1.0
 40
1.0
 40
1.0
 40
1.0
 10
16.3334558171
 20
13.1828511689
 30
0.0
 10
16.3335547838
 20
13.1824680483
 30
0.0
 10
16.3337238913
 20
13.1816675684
 30
0.0
 10
16.333893865
 20
13.1804243979
 30
0.0
 10
16.3339829333
 20
13.1791262403
 30
0.0
 10
16.3339898812
 20
13.1778085949
 30
0.0
 10
16.3339138406
 20
13.1765055157
 30
0.0
 10
16.3337575519
 20
13.1752506182
 30
0.0
 10
16.3335240572
 20
13.1740781804
 30
0.0
 10
16.3333125364
 20
13.1733363447
 30
0.0
 10
16.3331928015
 20
13.1729874924
 30
0.0
  0
SPLINE
  5
304
100
AcDbEntity
  8
LAYER_AXIS
100
AcDbSpline
 62
7
  6
BYLAYER
 70
0
 71
3
 72
26
 73
22
 74
0
 42
0.0000001
 43
0.0000001
 44
0.0000000001
 40
0.0
 40
0.0
 40
0.0
 40
0.0
 40
0.0199553814
 40
0.0401077871
 40
0.0608410095
 40
0.0824947657
 40
0.1053433703
 40
0.1295836668
 40
0.1826674434
 40
0.2421270275
 40
0.3075242922
 40
0.3778472698
 40
0.4517442396
 40
0.527659487
 40
0.6039882996
 40
0.6791960412
 40
0.7519086663
 40
0.8209865553
 40
0.8539078248
 40
0.8856545666
 40
1.0
 40
1.0
 40
1.0
 40
1.0
 10
16.6082558703
 20
12.544301065
 30
0.0
 10
16.6081069704
 20
12.5438192083
 30
0.0
 10
16.6077299525
 20
12.5428728096
 30
0.0
 10
16.6069392001
 20
12.5415471931
 30
0.0
 10
16.6059307421
 20
12.5403227402
 30
0.0
 10
16.6047113536
 20
12.5392058797
 30
0.0
 10
16.6032898566
 20
12.5381999795
 30
0.0
 10
16.6010710653
 20
12.5369719133
 30
0.0
 10
16.5978141958
 20
12.5357574854
 30
0.0
 10
16.5934056026
 20
12.5348141495
 30
0.0
 10
16.5884854419
 20
12.5343471754
 30
0.0
 10
16.5831806273
 20
12.534359386
 30
0.0
 10
16.5776323787
 20
12.5348507511
 30
0.0
 10
16.5719929866
 20
12.5358169354
 30
0.0
 10
16.566418462
 20
12.5372471319
 30
0.0
 10
16.5610627966
 20
12.5391247866
 30
0.0
 10
16.5560752844
 20
12.541427299
 30
0.0
 10
16.5522801516
 20
12.5437051207
 30
0.0
 10
16.5495623352
 20
12.5457216498
 30
0.0
 10
16.5461283577
 20
12.5486591674
 30
0.0
 10
16.5437181425
 20
12.5516069306
 30
0.0
 10
16.5424450244
 20
12.5542012726
 30
0.0
  0
SPLINE
  5
305
100
AcDbEntity
  8
LAYER_FEATURE
100
AcDbSpline
 62
7
  6
BYLAYER
 70
0
 71
3
 72
44
 73
40
 74
0
 42
0.0000001
 43
0.0000001
 44
0.0000000001
 40
0.0
 40
0.0
 40
0.0
 40
0.0
 40
0.0339316261
 40
0.0690575649
 40
0.1052316746
 40
0.1423220015
 40
0.1801946221
 40
0.2187022446
 40
0.257693215
 40
0.2970133985
 40
0.3365071181
 40
0.3760166985
 40
0.4153844737
 40
0.4544539144
 40
0.4930703271
 40
0.5310825737
 40
0.5683432503
 40
0.6047111848
 40
0.6400510973
 40
0.6742367747
 40
0.707150521
 40
0.7386870313
 40
0.7687530091
 40
0.7972718797
 40
0.824184195
 40
0.849453601
 40
0.8614693265
 40
0.8730731386
 40
0.895056749
 40
0.9054566624
 40
0.9154756552
 40
0.9344269396
 40
0.9520840212
 40
0.9605033822
 40
0.9686925084
 40
0.9766914881
 40
0.9845441416
 40
0.9922972634
 40
1.0
 40
1.0
 40
1.0
 40
1.0
 10
16.3179486132
 20
13.1239145769
 30
0.0
 10
16.3145576064
 20
13.1118262636
 30
0.0
 10
16.3081269258
 20
13.0870900776
 30
0.0
 10
16.2996454079
 20
13.0490815599
 30
0.0
 10
16.2921969524
 20
13.009667112
 30
0.0
 10
16.2858151041
 20
12.969037577
 30
0.0
 10
16.2805311201
 20
12.9273805874
 30
0.0
 10
16.2763672996
 20
12.8848903842
 30
0.0
 10
16.2733464233
 20
12.8417669211
 30
0.0
 10
16.2714801274
 20
12.7982130216
 30
0.0
 10
16.2707795884
 20
12.7544329374
 30
0.0
 10
16.2712457066
 20
12.7106321261
 30
0.0
 10
16.2728787229
 20
12.6670163246
 30
0.0
 10
16.2756685445
 20
12.6237902549
 30
0.0
 10
16.2796043025
 20
12.5811568987
 30
0.0
 10
16.2846651138
 20
12.5393161986
 30
0.0
 10
16.2908293435
 20
12.498464596
 30
0.0
 10
16.298065641
 20
12.458793432
 30
0.0
 10
16.3063420789
 20
12.4204888159
 30
0.0
 10
16.3156174346
 20
12.3837297342
 30
0.0
 10
16.3258502255
 20
12.3486883617
 30
0.0
 10
16.3369902309
 20
12.3155277154
 30
0.0
 10
16.3489874387
 20
12.2844026935
 30
0.0
 10
16.3617839987
 20
12.2554566709
 30
0.0
 10
16.3753226821
 20
12.228825106
 30
0.0
 10
16.3873650462
 20
12.2083288624
 30
0.0
 10
16.3973456949
 20
12.1932373996
 30
0.0
 10
16.407174146
 20
12.1795188113
 30
0.0
 10
16.4174299229
 20
12.166849894
 30
0.0
 10
16.4281429296
 20
12.1553798328
 30
0.0
 10
16.4386094776
 20
12.1452407757
 30
0.0
 10
16.4519411404
 20
12.1342290814
 30
0.0
 10
16.4660537116
 20
12.1252709131
 30
0.0
 10
16.4774411542
 20
12.1196732493
 30
0.0
 10
16.485902039
 20
12.1162842974
 30
0.0
 10
16.494406429
 20
12.1136432939
 30
0.0
 10
16.5029442865
 20
12.1117534369
 30
0.0
 10
16.5115039796
 20
12.1106180877
 30
0.0
 10
16.5172259711
 20
12.1103661504
 30
0.0
 10
16.5200760353
 20
12.1103665882
 30
0.0
  0
SPLINE
  5
306
100
AcDbEntity
  8
LAYER_AXIS
100
AcDbSpline
 62
7
  6
BYLAYER
 70
0
 71
3
 72
9
 73
5
 74
0
 42
0.0000001
 43
0.0000001
 44
0.0000000001
 40
0.0
 40
0.0
 40
0.0
 40
0.0
 40
0.498749677
 40
1.0
 40
1.0
 40
1.0
 40
1.0
 10
16.5732635117
 20
12.5769608799
 30
0.0
 10
16.5753074463
 20
12.5760115468
 30
0.0
 10
16.5795194036
 20
12.5743458377
 30
0.0
 10
16.5838888554
 20
12.5731542681
 30
0.0
 10
16.5861041894
 20
12.5726828297
 30
0.0
  0
SPLINE
  5
307
100
AcDbEntity
  8
LAYER_CUT_FEAT
100
AcDbSpline
 62
7
  6
BYLAYER
 70
0
 71
3
 72
12
 73
8
 74
0
 42
0.0000001
 43
0.0000001
 44
0.0000000001
 40
0.0
 40
0.0
 40
0.0
 40
0.0
 40
0.2649521048
 40
0.3922980988
 40
0.5162769704
 40
0.7580607771
 40
1.0
 40
1.0
 40
1.0
 40
1.0
 10
16.1980401278
 20
13.1709220884
 30
0.0
 10
16.1976107927
 20
13.1709220884
 30
0.0
 10
16.1969686064
 20
13.1708284479
 30
0.0
 10
16.1961909841
 20
13.1705117176
 30
0.0
 10
16.1955094252
 20
13.1700880044
 30
0.0
 10
16.1948145895
 20
13.169363502
 30
0.0
 10
16.1944772919
 20
13.1686398576
 30
0.0
 10
16.1943644791
 20
13.1682643951
 30
0.0
  0
SPLINE
  5
308
100
AcDbEntity
  8
LAYER_CUT_FEAT
100
AcDbSpline
 62
7
  6
BYLAYER
 70
0
 71
3
 72
12
 73
8
 74
0
 42
0.0000001
 43
0.0000001
 44
0.0000000001
 40
0.0
 40
0.0
 40
0.0
 40
0.0
 40
0.2399480416
 40
0.4940454743
 40
0.6236860462
 40
0.7526701823
 40
1.0
 40
1.0
 40
1.0
 40
1.0
 10
16.3094338738
 20
13.1659183296
 30
0.0
 10
16.3092944599
 20
13.1665624968
 30
0.0
 10
16.3087698855
 20
13.1678433574
 30
0.0
 10
16.3076593828
 20
13.1691826721
 30
0.0
 10
16.3065320682
 20
13.1700367779
 30
0.0
 10
16.3053001187
 20
13.1706871046
 30
0.0
 10
16.3042577235
 20
13.1709220884
 30
0.0
 10
16.3035783667
 20
13.1709220884
 30
0.0
  0
SPLINE
  5
309
100
AcDbEntity
  8
LAYER_CUT_FEAT
100
AcDbSpline
 62
7
  6
BYLAYER
 70
0
 71
3
 72
12
 73
8
 74
0
 42
0.0000001
 43
0.0000001
 44
0.0000000001
 40
0.0
 40
0.0
 40
0.0
 40
0.0
 40
0.5099885947
 40
0.6345839467
 40
0.7578330237
 40
0.8796454648
 40
1.0
 40
1.0
 40
1.0
 40
1.0
 10
16.3263223324
 20
13.2169321574
 30
0.0
 10
16.3273080026
 20
13.2110938923
 30
0.0
 10
16.328640226
 20
13.2038452729
 30
0.0
 10
16.3304832871
 20
13.195242022
 30
0.0
 10
16.3314305243
 20
13.1910560952
 30
0.0
 10
16.3324175945
 20
13.1869299878
 30
0.0
 10
16.3331063429
 20
13.1842040569
 30
0.0
 10
16.3334558171
 20
13.1828511689
 30
0.0
  0
SPLINE
  5
30A
100
AcDbEntity
  8
LAYER_FEATURE
100
AcDbSpline
 62
7
  6
BYLAYER
 70
0
 71
3
 72
34
 73
30
 74
0
 42
0.0000001
 43
0.0000001
 44
0.0000000001
 40
0.0
 40
0.0
 40
0.0
 40
0.0
 40
0.0336072693
 40
0.0680334607
 40
0.1385848487
 40
0.2104499294
 40
0.2465165812
 40
0.2824322485
 40
0.3180316238
 40
0.3531628056
 40
0.4214116865
 40
0.4863142861
 40
0.5173665729
 40
0.5474349517
 40
0.6046590784
 40
0.6320774265
 40
0.6588529732
 40
0.6851710151
 40
0.7112411967
 40
0.7372929484
 40
0.7635536759
 40
0.7902409947
 40
0.8175407361
 40
0.8456028456
 40
0.874546481
 40
0.9044528458
 40
0.9353670406
 40
0.9672510004
 40
1.0
 40
1.0
 40
1.0
 40
1.0
 10
16.5735832859
 20
12.9528267701
 30
0.0
 10
16.5717398776
 20
12.9528267701
 30
0.0
 10
16.5680064795
 20
12.952667725
 30
0.0
 10
16.5604547181
 20
12.9517461821
 30
0.0
 10
16.5509872208
 20
12.9494647146
 30
0.0
 10
16.5418637835
 20
12.945819597
 30
0.0
 10
16.5348811737
 20
12.9421337672
 30
0.0
 10
16.5298657078
 20
12.9390147817
 30
0.0
 10
16.525130037
 20
12.9355715594
 30
0.0
 10
16.5193046159
 20
12.9306458075
 30
0.0
 10
16.5129419713
 20
12.92390447
 30
0.0
 10
16.5078854007
 20
12.916391047
 30
0.0
 10
16.5048637639
 20
12.9101621211
 30
0.0
 10
16.5026133922
 20
12.9040657423
 30
0.0
 10
16.5013659376
 20
12.8978337847
 30
0.0
 10
16.5012667954
 20
12.8917099287
 30
0.0
 10
16.501753761
 20
12.8873079674
 30
0.0
 10
16.5027933101
 20
12.8830788378
 30
0.0
 10
16.5043805283
 20
12.8790653133
 30
0.0
 10
16.5064977448
 20
12.8753081616
 30
0.0
 10
16.5091221036
 20
12.8718435969
 30
0.0
 10
16.5122303028
 20
12.8687093356
 30
0.0
 10
16.5157861381
 20
12.8659320254
 30
0.0
 10
16.5197552889
 20
12.8635386503
 30
0.0
 10
16.5240998595
 20
12.8615529314
 30
0.0
 10
16.5287778747
 20
12.8599893516
 30
0.0
 10
16.5337456068
 20
12.8588666364
 30
0.0
 10
16.538949681
 20
12.8581915345
 30
0.0
 10
16.5424969299
 20
12.858044214
 30
0.0
 10
16.5442932608
 20
12.858044214
 30
0.0
  0
SPLINE
  5
30B
100
AcDbEntity
  8
LAYER_FEATURE
100
AcDbSpline
 62
7
  6
BYLAYER
 70
0
 71
3
 72
35
 73
31
 74
0
 42
0.0000001
 43
0.0000001
 44
0.0000000001
 40
0.0
 40
0.0
 40
0.0
 40
0.0
 40
0.0622534051
 40
0.0919755397
 40
0.1207878595
 40
0.1487718612
 40
0.1760420214
 40
0.2027393937
 40
0.229037458
 40
0.2551369837
 40
0.2812469262
 40
0.3075787998
 40
0.3343275403
 40
0.3616667062
 40
0.3897405633
 40
0.4186524128
 40
0.4484746329
 40
0.4792397354
 40
0.5109428323
 40
0.5435545101
 40
0.577011071
 40
0.6460461553
 40
0.7171962514
 40
0.7532423681
 40
0.7893850399
 40
0.8613026287
 40
0.8968413776
 40
0.9319099467
 40
0.9663514534
 40
1.0
 40
1.0
 40
1.0
 40
1.0
 10
16.5807901516
 20
12.9524131172
 30
0.0
 10
16.5840333515
 20
12.9520335013
 30
0.0
 10
16.5887976941
 20
12.951071065
 30
0.0
 10
16.5947619054
 20
12.9489093033
 30
0.0
 10
16.5988547919
 20
12.9469281733
 30
0.0
 10
16.6025956962
 20
12.944576181
 30
0.0
 10
16.6059531641
 20
12.9418757834
 30
0.0
 10
16.6088966395
 20
12.9388503005
 30
0.0
 10
16.6113948321
 20
12.9355236897
 30
0.0
 10
16.6134277383
 20
12.9319292146
 30
0.0
 10
16.614975457
 20
12.9280986069
 30
0.0
 10
16.6160215879
 20
12.9240670132
 30
0.0
 10
16.6165617344
 20
12.9198726587
 30
0.0
 10
16.6165885981
 20
12.915552937
 30
0.0
 10
16.6161031862
 20
12.9111472671
 30
0.0
 10
16.6151142104
 20
12.906693961
 30
0.0
 10
16.6136273433
 20
12.9022329576
 30
0.0
 10
16.6116586101
 20
12.8978028501
 30
0.0
 10
16.6092270283
 20
12.8934412692
 30
0.0
 10
16.6063508637
 20
12.8891880065
 30
0.0
 10
16.60191645
 20
12.8836520976
 30
0.0
 10
16.5954067866
 20
12.8772301859
 30
0.0
 10
16.5879469826
 20
12.8717189278
 30
0.0
 10
16.5814706142
 20
12.8678899238
 30
0.0
 10
16.5747154551
 20
12.8644885311
 30
0.0
 10
16.5676532748
 20
12.8617897893
 30
0.0
 10
16.560426236
 20
12.859859028
 30
0.0
 10
16.5550098466
 20
12.8588195796
 30
0.0
 10
16.5496310626
 20
12.8581899136
 30
0.0
 10
16.5460582083
 20
12.858044214
 30
0.0
 10
16.5442932608
 20
12.858044214
 30
0.0
  0
SPLINE
  5
30C
100
AcDbEntity
  8
LAYER_FEATURE
100
AcDbSpline
 62
7
  6
BYLAYER
 70
0
 71
3
 72
15
 73
11
 74
0
 42
0.0000001
 43
0.0000001
 44
0.0000000001
 40
0.0
 40
0.0
 40
0.0
 40
0.0
 40
0.1125756824
 40
0.2271134297
 40
0.3447203012
 40
0.4662600758
 40
0.5923752626
 40
0.7234569528
 40
0.8595114651
 40
1.0
 40
1.0
 40
1.0
 40
1.0
 10
16.5012302585
 20
12.8677981046
 30
0.0
 10
16.5021981786
 20
12.8661664453
 30
0.0
 10
16.5044164607
 20
12.8630244767
 30
0.0
 10
16.5084790484
 20
12.8588421685
 30
0.0
 10
16.5132322686
 20
12.8552116191
 30
0.0
 10
16.5186123027
 20
12.8521827355
 30
0.0
 10
16.5245477296
 20
12.8497912291
 30
0.0
 10
16.5309619258
 20
12.8480660192
 30
0.0
 10
16.5377654758
 20
12.8470301202
 30
0.0
 10
16.5424295206
 20
12.846804719
 30
0.0
 10
16.5447970652
 20
12.846804719
 30
0.0
  0
SPLINE
  5
30D
100
AcDbEntity
  8
LAYER_CUT_FEAT
100
AcDbSpline
 62
7
  6
BYLAYER
 70
0
 71
3
 72
22
 73
18
 74
0
 42
0.0000001
 43
0.0000001
 44
0.0000000001
 40
0.0
 40
0.0
 40
0.0
 40
0.0
 40
0.0426294964
 40
0.0860029371
 40
0.1308140277
 40
0.177679905
 40
0.2271238874
 40
0.2795477857
 40
0.3352509961
 40
0.39445358
 40
0.4573075142
 40
0.5238911973
 40
0.5942324365
 40
0.6683242766
 40
0.746115246
 40
0.8274568682
 40
1.0
 40
1.0
 40
1.0
 40
1.0
 10
16.7417033254
 20
12.625133004
 30
0.0
 10
16.742617179
 20
12.6251329618
 30
0.0
 10
16.744463512
 20
12.6252679259
 30
0.0
 10
16.7472111457
 20
12.625870375
 30
0.0
 10
16.7499374421
 20
12.6268689124
 30
0.0
 10
16.7526325092
 20
12.6282588433
 30
0.0
 10
16.7552875774
 20
12.6300352257
 30
0.0
 10
16.757895921
 20
12.6321894033
 30
0.0
 10
16.7604506219
 20
12.6347133987
 30
0.0
 10
16.7629442951
 20
12.6375994675
 30
0.0
 10
16.7653689836
 20
12.6408394877
 30
0.0
 10
16.767718535
 20
12.6444230486
 30
0.0
 10
16.7699863102
 20
12.6483395449
 30
0.0
 10
16.7721652417
 20
12.6525778738
 30
0.0
 10
16.774247604
 20
12.6571250297
 30
0.0
 10
16.7769402663
 20
12.6637071667
 30
0.0
 10
16.7787109855
 20
12.668859978
 30
0.0
 10
16.7798030546
 20
12.672393915
 30
0.0
  0
SPLINE
  5
30E
100
AcDbEntity
  8
LAYER_FEATURE
100
AcDbSpline
 62
7
  6
BYLAYER
 70
0
 71
3
 72
13
 73
9
 74
0
 42
0.0000001
 43
0.0000001
 44
0.0000000001
 40
0.0
 40
0.0
 40
0.0
 40
0.0
 40
0.3221803625
 40
0.5913391707
 40
0.706772712
 40
0.8113868266
 40
0.907887241
 40
1.0
 40
1.0
 40
1.0
 40
1.0
 10
16.3493103058
 20
13.2157587802
 30
0.0
 10
16.3491764131
 20
13.2154350604
 30
0.0
 10
16.3488942741
 20
13.2148549319
 30
0.0
 10
16.3484380801
 20
13.2142272156
 30
0.0
 10
16.3480399912
 20
13.2138713679
 30
0.0
 10
16.3477468717
 20
13.2136871922
 30
0.0
 10
16.3474459684
 20
13.2135745511
 30
0.0
 10
16.3472400459
 20
13.2135493501
 30
0.0
 10
16.3471398889
 20
13.2135494977
 30
0.0
  0
SPLINE
  5
30F
100
AcDbEntity
  8
LAYER_CUT_FEAT
100
AcDbSpline
 62
7
  6
BYLAYER
 70
0
 71
3
 72
12
 73
8
 74
0
 42
0.0000001
 43
0.0000001
 44
0.0000000001
 40
0.0
 40
0.0
 40
0.0
 40
0.0
 40
0.258634166
 40
0.3847455921
 40
0.5087353449
 40
0.7534667034
 40
1.0
 40
1.0
 40
1.0
 40
1.0
 10
16.2151246742
 20
13.2221782009
 30
0.0
 10
16.2147068449
 20
13.2221782009
 30
0.0
 10
16.2140794115
 20
13.222084499
 30
0.0
 10
16.213314896
 20
13.2217755408
 30
0.0
 10
16.2126293913
 20
13.2213579639
 30
0.0
 10
16.2119138507
 20
13.22064407
 30
0.0
 10
16.2115384967
 20
13.2199307667
 30
0.0
 10
16.211401344
 20
13.2195568468
 30
0.0
  0
SPLINE
  5
310
100
AcDbEntity
  8
LAYER_CUT_FEAT
100
AcDbSpline
 62
7
  6
BYLAYER
 70
0
 71
3
 72
12
 73
8
 74
0
 42
0.0000001
 43
0.0000001
 44
0.0000000001
 40
0.0
 40
0.0
 40
0.0
 40
0.0
 40
0.2453059032
 40
0.5001312095
 40
0.6286833794
 40
0.7559808783
 40
1.0
 40
1.0
 40
1.0
 40
1.0
 10
16.3263223324
 20
13.2169321574
 30
0.0
 10
16.3262093
 20
13.2176016643
 30
0.0
 10
16.3257437974
 20
13.2189338074
 30
0.0
 10
16.3246828544
 20
13.2203497686
 30
0.0
 10
16.3235839964
 20
13.2212494886
 30
0.0
 10
16.322376222
 20
13.221932356
 30
0.0
 10
16.3213383329
 20
13.2221782009
 30
0.0
 10
16.3206629131
 20
13.2221782009
 30
0.0
  0
SPLINE
  5
311
100
AcDbEntity
  8
LAYER_CUT_FEAT
100
AcDbSpline
 62
7
  6
BYLAYER
 70
0
 71
3
 72
30
 73
26
 74
0
 42
0.0000001
 43
0.0000001
 44
0.0000000001
 40
0.0
 40
0.0
 40
0.0
 40
0.0
 40
0.015428755
 40
0.0312710044
 40
0.0479003046
 40
0.0656307999
 40
0.0846985923
 40
0.1052692622
 40
0.1274549294
 40
0.1513124074
 40
0.1768544055
 40
0.204068285
 40
0.2329121355
 40
0.2633153941
 40
0.3284415921
 40
0.3986093817
 40
0.4727840118
 40
0.549790976
 40
0.6283792233
 40
0.7072477479
 40
0.7850781753
 40
0.8605958863
 40
0.9326333537
 40
0.9669788844
 40
1.0
 40
1.0
 40
1.0
 40
1.0
 10
16.7417033254
 20
12.874932996
 30
0.0
 10
16.7428426874
 20
12.8749329435
 30
0.0
 10
16.7451569999
 20
12.8747211443
 30
0.0
 10
16.7485837208
 20
12.8737804788
 30
0.0
 10
16.7519660951
 20
12.872226681
 30
0.0
 10
16.7552848384
 20
12.8700709605
 30
0.0
 10
16.7585279167
 20
12.8673303479
 30
0.0
 10
16.7616833174
 20
12.8640203034
 30
0.0
 10
16.7647364493
 20
12.8601555104
 30
0.0
 10
16.7676748377
 20
12.8557552821
 30
0.0
 10
16.7704864152
 20
12.8508411703
 30
0.0
 10
16.7731566511
 20
12.8454355812
 30
0.0
 10
16.7756728343
 20
12.8395643937
 30
0.0
 10
16.7788816303
 20
12.8309554719
 30
0.0
 10
16.7823862775
 20
12.8192165698
 30
0.0
 10
16.7857231192
 20
12.8041007208
 30
0.0
 10
16.7882128669
 20
12.7879349725
 30
0.0
 10
16.7898089328
 20
12.7710333795
 30
0.0
 10
16.7904783176
 20
12.7537232732
 30
0.0
 10
16.790206333
 20
12.7363417408
 30
0.0
 10
16.7890016927
 20
12.7192266805
 30
0.0
 10
16.7868855287
 20
12.7027084591
 30
0.0
 10
16.7843581387
 20
12.689504638
 30
0.0
 10
16.7818931558
 20
12.6795077104
 30
0.0
 10
16.780523015
 20
12.6747237077
 30
0.0
 10
16.7798030546
 20
12.672393915
 30
0.0
  0
SPLINE
  5
312
100
AcDbEntity
  8
LAYER_FEATURE
100
AcDbSpline
 62
7
  6
BYLAYER
 70
0
 71
3
 72
11
 73
7
 74
0
 42
0.0000001
 43
0.0000001
 44
0.0000000001
 40
0.0
 40
0.0
 40
0.0
 40
0.0
 40
0.2440509812
 40
0.4911331585
 40
0.7426896892
 40
1.0
 40
1.0
 40
1.0
 40
1.0
 10
16.6243092419
 20
12.927291559
 30
0.0
 10
16.6248093111
 20
12.9259393773
 30
0.0
 10
16.6256513689
 20
12.9231544689
 30
0.0
 10
16.6264203551
 20
12.9188255117
 30
0.0
 10
16.626696146
 20
12.9143592149
 30
0.0
 10
16.6265493212
 20
12.9113499818
 30
0.0
 10
16.626397306
 20
12.9098375871
 30
0.0
  0
SPLINE
  5
313
100
AcDbEntity
  8
LAYER_FEATURE
100
AcDbSpline
 62
7
  6
BYLAYER
 70
0
 71
3
 72
14
 73
10
 74
0
 42
0.0000001
 43
0.0000001
 44
0.0000000001
 40
0.0
 40
0.0
 40
0.0
 40
0.0
 40
0.2461061077
 40
0.3732427837
 40
0.5014168483
 40
0.6293468969
 40
0.7558563086
 40
0.8798388785
 40
1.0
 40
1.0
 40
1.0
 40
1.0
 10
16.612014497
 20
12.8783308941
 30
0.0
 10
16.6079781861
 20
12.8735330877
 30
0.0
 10
16.600947695
 20
12.8669769734
 30
0.0
 10
16.5903476829
 20
12.8598252719
 30
0.0
 10
16.581716406
 20
12.8552201638
 30
0.0
 10
16.5726748739
 20
12.8515337156
 30
0.0
 10
16.5633997104
 20
12.848836713
 30
0.0
 10
16.5540830552
 20
12.8471921367
 30
0.0
 10
16.5478583043
 20
12.846804719
 30
0.0
 10
16.5447970652
 20
12.846804719
 30
0.0
  0
SPLINE
  5
314
100
AcDbEntity
  8
LAYER_CUT_FEAT
100
AcDbSpline
 62
7
  6
BYLAYER
 70
0
 71
3
 72
40
 73
36
 74
0
 42
0.0000001
 43
0.0000001
 44
0.0000000001
 40
0.0
 40
0.0
 40
0.0
 40
0.0
 40
0.0223616146
 40
0.0427826966
 40
0.0615278852
 40
0.0704004273
 40
0.0790132548
 40
0.0874359481
 40
0.0957445526
 40
0.1040184596
 40
0.1123382262
 40
0.1207832884
 40
0.1294287173
 40
0.147567007
 40
0.1672270626
 40
0.1887286444
 40
0.2122686912
 40
0.2379531924
 40
0.2658034778
 40
0.295789453
 40
0.3278278183
 40
0.361800429
 40
0.3975593691
 40
0.4349276499
 40
0.4737132048
 40
0.5137013541
 40
0.5546680316
 40
0.5963763059
 40
0.6810232961
 40
0.7656568592
 40
0.8482685156
 40
0.8882214816
 40
0.9269776592
 40
0.9643152955
 40
1.0
 40
1.0
 40
1.0
 40
1.0
 10
16.7282290625
 20
12.8717137226
 30
0.0
 10
16.7294922896
 20
12.8732266287
 30
0.0
 10
16.7320596409
 20
12.8760022965
 30
0.0
 10
16.7362326691
 20
12.8794912455
 30
0.0
 10
16.7398783411
 20
12.8816881805
 30
0.0
 10
16.7428178585
 20
12.8829466724
 30
0.0
 10
16.7449977081
 20
12.8836397637
 30
0.0
 10
16.7471883816
 20
12.8840967964
 30
0.0
 10
16.7493854811
 20
12.8843173595
 30
0.0
 10
16.7515845457
 20
12.884300956
 30
0.0
 10
16.75378105
 20
12.8840475158
 30
0.0
 10
16.7559705012
 20
12.8835568643
 30
0.0
 10
16.7589205393
 20
12.8825735096
 30
0.0
 10
16.7625963646
 20
12.880717104
 30
0.0
 10
16.7668239442
 20
12.8776113285
 30
0.0
 10
16.7709204643
 20
12.8736220059
 30
0.0
 10
16.7748646546
 20
12.8687799826
 30
0.0
 10
16.7786320911
 20
12.8631164138
 30
0.0
 10
16.7822022353
 20
12.8566707206
 30
0.0
 10
16.7855491333
 20
12.8494848282
 30
0.0
 10
16.7886521258
 20
12.8416083363
 30
0.0
 10
16.7914890726
 20
12.8330947549
 30
0.0
 10
16.7940399061
 20
12.8240027777
 30
0.0
 10
16.7962881561
 20
12.8143954859
 30
0.0
 10
16.7982160236
 20
12.804339299
 30
0.0
 10
16.7998121437
 20
12.7939044503
 30
0.0
 10
16.8010634316
 20
12.7831633006
 30
0.0
 10
16.8022674413
 20
12.7684625012
 30
0.0
 10
16.8028582451
 20
12.7498607094
 30
0.0
 10
16.8021300047
 20
12.7276564007
 30
0.0
 10
16.8003271912
 20
12.7094671471
 30
0.0
 10
16.7981621733
 20
12.6954114023
 30
0.0
 10
16.7962229726
 20
12.6853657828
 30
0.0
 10
16.7939647961
 20
12.6757732074
 30
0.0
 10
16.7922171966
 20
12.6695760103
 30
0.0
 10
16.7912885731
 20
12.6665709836
 30
0.0
  0
SPLINE
  5
315
100
AcDbEntity
  8
LAYER_FEATURE
100
AcDbSpline
 62
7
  6
BYLAYER
 70
0
 71
3
 72
15
 73
11
 74
0
 42
0.0000001
 43
0.0000001
 44
0.0000000001
 40
0.0
 40
0.0
 40
0.0
 40
0.0
 40
0.1130754378
 40
0.2353493732
 40
0.3638873487
 40
0.4958379557
 40
0.6283363666
 40
0.7584958763
 40
0.8834063717
 40
1.0
 40
1.0
 40
1.0
 40
1.0
 10
16.317833869
 20
13.1337969584
 30
0.0
 10
16.3179479028
 20
13.1334376939
 30
0.0
 10
16.318147735
 20
13.1326778191
 30
0.0
 10
16.3183637138
 20
13.1314831977
 30
0.0
 10
16.3185012948
 20
13.1302137197
 30
0.0
 10
16.3185579407
 20
13.1289040761
 30
0.0
 10
16.3185314379
 20
13.1275880774
 30
0.0
 10
16.318423183
 20
13.1262997255
 30
0.0
 10
16.3182349163
 20
13.1250742439
 30
0.0
 10
16.3180535866
 20
13.1242887878
 30
0.0
 10
16.3179486132
 20
13.1239145769
 30
0.0
  0
SPLINE
  5
316
100
AcDbEntity
  8
LAYER_CUT_FEAT
100
AcDbSpline
 62
7
  6
BYLAYER
 70
0
 71
3
 72
12
 73
8
 74
0
 42
0.0000001
 43
0.0000001
 44
0.0000000001
 40
0.0
 40
0.0
 40
0.0
 40
0.0
 40
0.5121859164
 40
0.6366561365
 40
0.7594970615
 40
0.880615313
 40
1.0
 40
1.0
 40
1.0
 40
1.0
 10
16.3094338738
 20
13.1659183296
 30
0.0
 10
16.3106333258
 20
13.1603762168
 30
0.0
 10
16.3122321044
 20
13.1535084364
 30
0.0
 10
16.3144014444
 20
13.1453845179
 30
0.0
 10
16.3155038051
 20
13.1414572834
 30
0.0
 10
16.3166435639
 20
13.1375994073
 30
0.0
 10
16.3174340057
 20
13.1350567318
 30
0.0
 10
16.317833869
 20
13.1337969584
 30
0.0
  0
SPLINE
  5
317
100
AcDbEntity
  8
LAYER_FEATURE
100
AcDbSpline
 62
7
  6
BYLAYER
 70
0
 71
3
 72
23
 73
19
 74
0
 42
0.0000001
 43
0.0000001
 44
0.0000000001
 40
0.0
 40
0.0
 40
0.0
 40
0.0
 40
0.0458121468
 40
0.0921891223
 40
0.1396714112
 40
0.188751294
 40
0.2398639193
 40
0.2933777689
 40
0.3495917796
 40
0.4087463937
 40
0.4710195927
 40
0.5365347473
 40
0.605376762
 40
0.6775934407
 40
0.753202673
 40
0.8321935655
 40
0.914493972
 40
1.0
 40
1.0
 40
1.0
 40
1.0
 10
16.5200621123
 20
13.3896991414
 30
0.0
 10
16.5161368669
 20
13.3896989
 30
0.0
 10
16.5082298183
 20
13.3892168025
 30
0.0
 10
16.4964324591
 20
13.3870545291
 30
0.0
 10
16.4846972569
 20
13.3834593469
 30
0.0
 10
16.473053999
 20
13.3784471209
 30
0.0
 10
16.4615288003
 20
13.3720315574
 30
0.0
 10
16.4501463449
 20
13.3642308642
 30
0.0
 10
16.438928336
 20
13.3550664468
 30
0.0
 10
16.4278990592
 20
13.3445580918
 30
0.0
 10
16.4170805929
 20
13.3327308255
 30
0.0
 10
16.4064943029
 20
13.3196122118
 30
0.0
 10
16.3961639927
 20
13.3052297561
 30
0.0
 10
16.3861104087
 20
13.2896146493
 30
0.0
 10
16.3763541041
 20
13.2727997857
 30
0.0
 10
16.3669185079
 20
13.2548219002
 30
0.0
 10
16.3578242627
 20
13.2357262599
 30
0.0
 10
16.3521104408
 20
13.2225288224
 30
0.0
 10
16.3493103058
 20
13.2157587802
 30
0.0
  0
SPLINE
  5
318
100
AcDbEntity
  8
LAYER_CUT_FEAT
100
AcDbSpline
 62
7
  6
BYLAYER
 70
0
 71
3
 72
26
 73
22
 74
0
 42
0.0000001
 43
0.0000001
 44
0.0000000001
 40
0.0
 40
0.0
 40
0.0
 40
0.0
 40
0.093786148
 40
0.1823288303
 40
0.2651789727
 40
0.3420954724
 40
0.4130192427
 40
0.478037654
 40
0.5374393212
 40
0.5917621658
 40
0.641900744
 40
0.6658054007
 40
0.6891617155
 40
0.7121777433
 40
0.7350715316
 40
0.7580650545
 40
0.7813780171
 40
0.8297234519
 40
0.8816087727
 40
0.9381271224
 40
1.0
 40
1.0
 40
1.0
 40
1.0
 10
16.7912885731
 20
12.6665709836
 30
0.0
 10
16.790408261
 20
12.6637222925
 30
0.0
 10
16.7885658551
 20
12.658223307
 30
0.0
 10
16.7854626791
 20
12.6503800581
 30
0.0
 10
16.7821150856
 20
12.6432246584
 30
0.0
 10
16.7785470643
 20
12.6368092223
 30
0.0
 10
16.7747824034
 20
12.6311753114
 30
0.0
 10
16.7708427531
 20
12.6263600003
 30
0.0
 10
16.7667521221
 20
12.622393632
 30
0.0
 10
16.7625302735
 20
12.6193092503
 30
0.0
 10
16.7588613764
 20
12.6174672599
 30
0.0
 10
16.7559169028
 20
12.6164942898
 30
0.0
 10
16.7537314848
 20
12.6160106828
 30
0.0
 10
16.7515392566
 20
12.6157626576
 30
0.0
 10
16.749344547
 20
12.615750571
 30
0.0
 10
16.7471517086
 20
12.615974715
 30
0.0
 10
16.744202302
 20
12.6165953679
 30
0.0
 10
16.7405045049
 20
12.6179975354
 30
0.0
 10
16.7362194878
 20
12.62058495
 30
0.0
 10
16.7320543243
 20
12.6240697647
 30
0.0
 10
16.729491692
 20
12.6268397832
 30
0.0
 10
16.728230865
 20
12.6283495995
 30
0.0
  0
SPLINE
  5
319
100
AcDbEntity
  8
LAYER_FEATURE
100
AcDbSpline
 62
7
  6
BYLAYER
 70
0
 71
3
 72
43
 73
39
 74
0
 42
0.0000001
 43
0.0000001
 44
0.0000000001
 40
0.0
 40
0.0
 40
0.0
 40
0.0
 40
0.0353014428
 40
0.0721867549
 40
0.1104409984
 40
0.1498623408
 40
0.1902543232
 40
0.2314056569
 40
0.3150617466
 40
0.3989922998
 40
0.4404862687
 40
0.4813568793
 40
0.5213833314
 40
0.5603523949
 40
0.5980613395
 40
0.6343234044
 40
0.6689643383
 40
0.7018356522
 40
0.7328073537
 40
0.7617841573
 40
0.7887037768
 40
0.8135499279
 40
0.8363652913
 40
0.8572608669
 40
0.8670563822
 40
0.876458354
 40
0.8855091235
 40
0.8942597498
 40
0.9027686855
 40
0.9111004746
 40
0.9193249094
 40
0.9275156518
 40
0.9357474976
 40
0.9440935046
 40
0.9526231863
 40
0.9614011009
 40
0.979908031
 40
1.0
 40
1.0
 40
1.0
 40
1.0
 10
16.6769283773
 20
12.8996125607
 30
0.0
 10
16.6753217027
 20
12.8944133597
 30
0.0
 10
16.6722909898
 20
12.883701709
 30
0.0
 10
16.6683525101
 20
12.8671343223
 30
0.0
 10
16.6649464595
 20
12.8498016583
 30
0.0
 10
16.6620953505
 20
12.8318221411
 30
0.0
 10
16.6598173549
 20
12.8133110891
 30
0.0
 10
16.6575518207
 20
12.7879422942
 30
0.0
 10
16.6562482961
 20
12.7557682838
 30
0.0
 10
16.6569546885
 20
12.7235231827
 30
0.0
 10
16.6587419601
 20
12.6979470169
 30
0.0
 10
16.6606730404
 20
12.6791756356
 30
0.0
 10
16.6631863059
 20
12.6608660525
 30
0.0
 10
16.6662646193
 20
12.6431370522
 30
0.0
 10
16.6698896092
 20
12.6261041704
 30
0.0
 10
16.6740346981
 20
12.6098775097
 30
0.0
 10
16.6786762106
 20
12.5945627193
 30
0.0
 10
16.6837804192
 20
12.5802579471
 30
0.0
 10
16.6893173077
 20
12.5670557151
 30
0.0
 10
16.695249563
 20
12.5550397718
 30
0.0
 10
16.7015405021
 20
12.5442861571
 30
0.0
 10
16.7081535725
 20
12.5348626679
 30
0.0
 10
16.7150469272
 20
12.5268275808
 30
0.0
 10
16.7211260985
 20
12.5212158247
 30
0.0
 10
16.7260894612
 20
12.5175247584
 30
0.0
 10
16.7297738236
 20
12.5151950864
 30
0.0
 10
16.7334945267
 20
12.5132498739
 30
0.0
 10
16.7372455169
 20
12.5116926253
 30
0.0
 10
16.7410203724
 20
12.5105259022
 30
0.0
 10
16.7448126436
 20
12.5097523846
 30
0.0
 10
16.7486155517
 20
12.5093747214
 30
0.0
 10
16.7524217825
 20
12.5093948978
 30
0.0
 10
16.7562239076
 20
12.5098115553
 30
0.0
 10
16.7600148129
 20
12.5106231933
 30
0.0
 10
16.7637878437
 20
12.5118280172
 30
0.0
 10
16.7688737987
 20
12.5139938322
 30
0.0
 10
16.7751819624
 20
12.5177434262
 30
0.0
 10
16.7798015953
 20
12.521525948
 30
0.0
 10
16.7820756816
 20
12.5236286363
 30
0.0
  0
SPLINE
  5
31A
100
AcDbEntity
  8
LAYER_FEATURE
100
AcDbSpline
 62
7
  6
BYLAYER
 70
0
 71
3
 72
9
 73
5
 74
0
 42
0.0000001
 43
0.0000001
 44
0.0000000001
 40
0.0
 40
0.0
 40
0.0
 40
0.0
 40
0.2412071492
 40
1.0
 40
1.0
 40
1.0
 40
1.0
 10
16.7823762632
 20
12.5239080556
 30
0.0
 10
16.7830261517
 20
12.5245154199
 30
0.0
 10
16.785676989
 20
12.5270798289
 30
0.0
 10
16.7881570179
 20
12.5298186281
 30
0.0
 10
16.7899501087
 20
12.5319669106
 30
0.0
  0
SPLINE
  5
31B
100
AcDbEntity
  8
LAYER_FEATURE
100
AcDbSpline
 62
7
  6
BYLAYER
 70
0
 71
3
 72
38
 73
34
 74
0
 42
0.0000001
 43
0.0000001
 44
0.0000000001
 40
0.0
 40
0.0
 40
0.0
 40
0.0
 40
0.0330329965
 40
0.06737731
 40
0.1028812449
 40
0.1393980561
 40
0.214908876
 40
0.2536173857
 40
0.2927460434
 40
0.3321324602
 40
0.3716129917
 40
0.4501936689
 40
0.5271952619
 40
0.5647129979
 40
0.6013713278
 40
0.6370261745
 40
0.6715446514
 40
0.704799527
 40
0.7366775556
 40
0.7670797273
 40
0.7959185029
 40
0.8231308637
 40
0.8486724945
 40
0.8725255113
 40
0.8947097698
 40
0.9152799441
 40
0.9343449461
 40
0.9520738103
 40
0.9687022424
 40
0.976705852
 40
0.9845572594
 40
0.992304933
 40
1.0
 40
1.0
 40
1.0
 40
1.0
 10
16.6654428588
 20
12.9054354921
 30
0.0
 10
16.6640011394
 20
12.9007700866
 30
0.0
 10
16.6612576253
 20
12.8911922409
 30
0.0
 10
16.6576152497
 20
12.8764233772
 30
0.0
 10
16.6543819616
 20
12.8610327918
 30
0.0
 10
16.650599881
 20
12.8395514215
 30
0.0
 10
16.6477665019
 20
12.8174337759
 30
0.0
 10
16.6458451909
 20
12.7948447347
 30
0.0
 10
16.6448597839
 20
12.777541829
 30
0.0
 10
16.6443486366
 20
12.760104445
 30
0.0
 10
16.6443002233
 20
12.7368274599
 30
0.0
 10
16.6454154486
 20
12.7079987701
 30
0.0
 10
16.6480991079
 20
12.6795633907
 30
0.0
 10
16.651189057
 20
12.657427287
 30
0.0
 10
16.6539279356
 20
12.6414214344
 30
0.0
 10
16.6570963362
 20
12.6259472229
 30
0.0
 10
16.6606763169
 20
12.6110797146
 30
0.0
 10
16.6646519906
 20
12.5968916661
 30
0.0
 10
16.6690038406
 20
12.5834521919
 30
0.0
 10
16.6737088171
 20
12.570825997
 30
0.0
 10
16.6787468394
 20
12.5590750051
 30
0.0
 10
16.6840914308
 20
12.5482551105
 30
0.0
 10
16.6897174877
 20
12.5384179767
 30
0.0
 10
16.6956007397
 20
12.529611603
 30
0.0
 10
16.701711646
 20
12.5218758341
 30
0.0
 10
16.708026401
 20
12.5152492478
 30
0.0
 10
16.7145189565
 20
12.5097645931
 30
0.0
 10
16.7211608945
 20
12.5054501863
 30
0.0
 10
16.726876184
 20
12.5028243156
 30
0.0
 10
16.7314577973
 20
12.5013705208
 30
0.0
 10
16.7348652059
 20
12.500599445
 30
0.0
 10
16.7382816441
 20
12.5001359843
 30
0.0
 10
16.7405658052
 20
12.5000330318
 30
0.0
 10
16.7417033254
 20
12.500033167
 30
0.0
  0
SPLINE
  5
31C
100
AcDbEntity
  8
LAYER_FEATURE
100
AcDbSpline
 62
7
  6
BYLAYER
 70
0
 71
3
 72
14
 73
10
 74
0
 42
0.0000001
 43
0.0000001
 44
0.0000000001
 40
0.0
 40
0.0
 40
0.0
 40
0.0
 40
0.3288075121
 40
0.4725862256
 40
0.6016381498
 40
0.7166354922
 40
0.8192258352
 40
0.912241954
 40
1.0
 40
1.0
 40
1.0
 40
1.0
 10
16.3323559413
 20
13.1705367076
 30
0.0
 10
16.3322193842
 20
13.1701347323
 30
0.0
 10
16.3319884078
 20
13.1695663937
 30
0.0
 10
16.3315994918
 20
13.1688926753
 30
0.0
 10
16.3313015646
 20
13.1684885804
 30
0.0
 10
16.3309876912
 20
13.1681671044
 30
0.0
 10
16.3306600005
 20
13.1679314303
 30
0.0
 10
16.3303203899
 20
13.1677864504
 30
0.0
 10
16.3300859507
 20
13.1677531263
 30
0.0
 10
16.3299726427
 20
13.1677529868
 30
0.0
  0
SPLINE
  5
31D
100
AcDbEntity
  8
LAYER_AXIS
100
AcDbSpline
 62
7
  6
BYLAYER
 70
0
 71
3
 72
11
 73
7
 74
0
 42
0.0000001
 43
0.0000001
 44
0.0000000001
 40
0.0
 40
0.0
 40
0.0
 40
0.0
 40
0.2631293992
 40
0.5146832755
 40
0.7585758662
 40
1.0
 40
1.0
 40
1.0
 40
1.0
 10
16.5424450244
 20
12.5542012726
 30
0.0
 10
16.5420171866
 20
12.5550731143
 30
0.0
 10
16.5413144829
 20
12.5568494745
 30
0.0
 10
16.5407608285
 20
12.5596103889
 30
0.0
 10
16.5407546989
 20
12.5623475602
 30
0.0
 10
16.5411132731
 20
12.5641170695
 30
0.0
 10
16.5413763466
 20
12.5649684
 30
0.0
  0
SPLINE
  5
31E
100
AcDbEntity
  8
LAYER_FEATURE
100
AcDbSpline
 62
7
  6
BYLAYER
 70
0
 71
3
 72
28
 73
24
 74
0
 42
0.0000001
 43
0.0000001
 44
0.0000000001
 40
0.0
 40
0.0
 40
0.0
 40
0.0
 40
0.0938696417
 40
0.182863107
 40
0.2665808303
 40
0.3447934816
 40
0.4174214458
 40
0.4844944739
 40
0.5461924142
 40
0.6028761122
 40
0.6551763101
 40
0.6799770222
 40
0.7040474962
 40
0.727549242
 40
0.7506579107
 40
0.7735597195
 40
0.7964476174
 40
0.8195159284
 40
0.8429524833
 40
0.8669337511
 40
0.8916220754
 40
0.9436462616
 40
1.0
 40
1.0
 40
1.0
 40
1.0
 10
16.6769283773
 20
12.8996125607
 30
0.0
 10
16.6784049671
 20
12.9043908071
 30
0.0
 10
16.6814874219
 20
12.9136373889
 30
0.0
 10
16.6866442045
 20
12.9268778135
 30
0.0
 10
16.6921876762
 20
12.9390517895
 30
0.0
 10
16.698083065
 20
12.9500814698
 30
0.0
 10
16.704295284
 20
12.9599039239
 30
0.0
 10
16.7107922837
 20
12.9684624156
 30
0.0
 10
16.7175374271
 20
12.9757098308
 30
0.0
 10
16.7245000043
 20
12.9815968479
 30
0.0
 10
16.7305631269
 20
12.9854034806
 30
0.0
 10
16.7354570619
 20
12.9876768608
 30
0.0
 10
16.7390886833
 20
12.9889886831
 30
0.0
 10
16.7427393673
 20
12.9899351472
 30
0.0
 10
16.746403261
 20
12.9905146872
 30
0.0
 10
16.7500741093
 20
12.9907258565
 30
0.0
 10
16.7537454981
 20
12.9905672574
 30
0.0
 10
16.7574107423
 20
12.9900388147
 30
0.0
 10
16.7610635531
 20
12.9891430053
 30
0.0
 10
16.7646980858
 20
12.9878819628
 30
0.0
 10
16.7695964651
 20
12.985679103
 30
0.0
 10
16.7756671832
 20
12.9819577018
 30
0.0
 10
16.7801239272
 20
12.9782578674
 30
0.0
 10
16.782319788
 20
12.9762102543
 30
0.0
  0
SPLINE
  5
31F
100
AcDbEntity
  8
LAYER_FEATURE
100
AcDbSpline
 62
7
  6
BYLAYER
 70
0
 71
3
 72
9
 73
5
 74
0
 42
0.0000001
 43
0.0000001
 44
0.0000000001
 40
0.0
 40
0.0
 40
0.0
 40
0.0
 40
0.2411235235
 40
1.0
 40
1.0
 40
1.0
 40
1.0
 10
16.782319788
 20
12.9762102543
 30
0.0
 10
16.7829753745
 20
12.975598928
 30
0.0
 10
16.7856501968
 20
12.9730164896
 30
0.0
 10
16.7881510281
 20
12.9702560804
 30
0.0
 10
16.7899584049
 20
12.968089898
 30
0.0
  0
SPLINE
  5
320
100
AcDbEntity
  8
LAYER_FEATURE
100
AcDbSpline
 62
7
  6
BYLAYER
 70
0
 71
3
 72
24
 73
20
 74
0
 42
0.0000001
 43
0.0000001
 44
0.0000000001
 40
0.0
 40
0.0
 40
0.0
 40
0.0
 40
0.0879084543
 40
0.1726285731
 40
0.2539541007
 40
0.3317005447
 40
0.4057637275
 40
0.4760958752
 40
0.5426779728
 40
0.6055365386
 40
0.6647521449
 40
0.7204598416
 40
0.7728729733
 40
0.7979479574
 40
0.8223259091
 40
0.8691924729
 40
0.9140013341
 40
0.9573717376
 40
1.0
 40
1.0
 40
1.0
 40
1.0
 10
16.6654428588
 20
12.9054354921
 30
0.0
 10
16.6665565924
 20
12.9090395356
 30
0.0
 10
16.6688574513
 20
12.9160824725
 30
0.0
 10
16.6726015299
 20
12.9263188412
 30
0.0
 10
16.6765636829
 20
12.936003702
 30
0.0
 10
16.6807318825
 20
12.9451013786
 30
0.0
 10
16.6850921168
 20
12.9535819475
 30
0.0
 10
16.6896300375
 20
12.9614204731
 30
0.0
 10
16.6943332038
 20
12.9685933695
 30
0.0
 10
16.6991878944
 20
12.9750787922
 30
0.0
 10
16.7041786699
 20
12.9808578296
 30
0.0
 10
16.7092912065
 20
12.9859113401
 30
0.0
 10
16.7137064953
 20
12.9895557683
 30
0.0
 10
16.7172823013
 20
12.9920731004
 30
0.0
 10
16.7207854156
 20
12.994269451
 30
0.0
 10
16.7252216726
 20
12.9965594093
 30
0.0
 10
16.730678563
 20
12.9985581608
 30
0.0
 10
16.7361785686
 20
12.9997627827
 30
0.0
 10
16.7398741208
 20
13.0000326155
 30
0.0
 10
16.7417033254
 20
13.000032833
 30
0.0
  0
ENDSEC
  0
SECTION
  2
OBJECTS
  0
DICTIONARY
  5
C
100
AcDbDictionary
280
0
281
1
  3
ACAD_GROUP
350
D
  3
ACAD_MLINESTYLE
350
17
  3
ACAD_LAYOUT
350
1A
  3
ACAD_PLOTSETTINGS
350
19
  3
ACAD_PLOTSTYLENAME
350
E
  0
DICTIONARY
  5
D
102
{ACAD_REACTORS
330
C
102
}
100
AcDbDictionary
280
0
281
1
  0
ACDBDICTIONARYWDFLT
  5
E
102
{ACAD_REACTORS
330
C
102
}
100
AcDbDictionary
281
1
  3
Normal
350
F
100
AcDbDictionaryWithDefault
340
F
  0
DICTIONARY
  5
17
102
{ACAD_REACTORS
330
C
102
}
100
AcDbDictionary
280
0
281
1
  3
Standard
350
18
  0
DICTIONARY
  5
19
102
{ACAD_REACTORS
330
C
102
}
100
AcDbDictionary
281
1
  0
DICTIONARY
  5
1A
102
{ACAD_REACTORS
330
C
102
}
100
AcDbDictionary
281
1
  3
Model
350
321
  3
Layout1
350
322
  0
ACDBPLACEHOLDER
  5
F
102
{ACAD_REACTORS
330
E
102
}
  0
MLINESTYLE
  5
18
102
{ACAD_REACTORS
330
17
102
}
100
AcDbMlineStyle
  2
STANDARD
 70
0
  3

 62
256
 51
90.0
 52
90.0
 71
2
 49
0.5
 62
256
  6
BYLAYER
 49
-0.5
 62
256
  6
BYLAYER
  0
LAYOUT
  5
321
102
{ACAD_REACTORS
330
1A
102
}
100
AcDbPlotSettings
  1

  2
none_device
  4
ANSI_C_(22.00_x_17.00_Inches)
  6

 40
0.0
 41
0.0
 42
0.0
 43
0.0
 44
558.8
 45
431.8
 46
0.0
 47
0.0
 48
0.0
 49
0.0
140
0.0
141
0.0
142
1.0
143
1.0
 70
1024
 72
0
 73
0
 74
0
  7

 75
0
147
1.0
148
0.0
149
0.0
100
AcDbLayout
  1
Model
 70
0
 71
0
 10
0.0
 20
0.0
 11
22.0
 21
17.0
 12
0.0
 22
0.0
 32
0.0
 14
0.0
 24
0.0
 34
0.0
 15
0.0
 25
0.0
 35
0.0
146
0.0
 13
0.0
 23
0.0
 33
0.0
 16
1.0
 26
0.0
 36
0.0
 17
0.0
 27
1.0
 37
0.0
 76
0
330
235
345
0
346
0
  0
LAYOUT
  5
322
102
{ACAD_REACTORS
330
1A
102
}
100
AcDbPlotSettings
  1

  2
none_device
  4
ANSI_C_(22.00_x_17.00_Inches)
  6

 40
0.0
 41
0.0
 42
0.0
 43
0.0
 44
558.8
 45
431.8
 46
0.0
 47
0.0
 48
0.0
 49
0.0
140
0.0
141
0.0
142
1.0
143
1.0
 70
0
 72
0
 73
0
 74
0
  7

 75
0
147
1.0
148
0.0
149
0.0
100
AcDbLayout
  1
Layout1
 70
0
 71
1
 10
0.0
 20
0.0
 11
22.0
 21
17.0
 12
0.0
 22
0.0
 32
0.0
 14
0.0
 24
0.0
 34
0.0
 15
0.0
 25
0.0
 35
0.0
146
0.0
 13
0.0
 23
0.0
 33
0.0
 16
1.0
 26
0.0
 36
0.0
 17
0.0
 27
1.0
 37
0.0
 76
0
330
236
345
0
346
0
  0
ENDSEC
  0
EOF
